<svg width="354" height="480" viewBox="0 0 354 480" fill="none" xmlns="http://www.w3.org/2000/svg">
<rect x="353.906" y="428.464" width="278" height="436" rx="12" transform="rotate(169.332 353.906 428.464)" fill="url(#paint0_linear_111_2)" fill-opacity="0.6"/>
<mask id="mask0_111_2" style="mask-type:alpha" maskUnits="userSpaceOnUse" x="2" y="2" width="350" height="476">
<rect x="353.906" y="428.464" width="278" height="436" rx="12" transform="rotate(169.332 353.906 428.464)" fill="url(#paint1_linear_111_2)"/>
</mask>
<g mask="url(#mask0_111_2)">
<path fill-rule="evenodd" clip-rule="evenodd" d="M110.471 374.55C105.125 373.645 100.999 372.709 101.303 372.472C101.606 372.234 104.945 370.824 108.723 369.338C112.501 367.851 116.031 366.232 116.568 365.741C117.505 364.882 117.493 364.579 116.248 358.106L114.952 351.366L114.374 354.528C114.055 356.267 113.707 358.086 113.598 358.57C113.484 359.085 112.204 360.025 110.518 360.831C108.932 361.59 103.855 364.024 99.2355 366.24L90.8364 370.27L91.3807 373.938L91.925 377.605L105.831 380.424C113.479 381.974 120.151 383.312 120.657 383.398C121.481 383.537 121.505 383.171 120.884 379.875L120.191 376.197L110.471 374.55ZM120.471 386.461C119.563 386.473 113.923 386.612 107.936 386.771C101.95 386.93 96.3102 387.072 95.4033 387.086L93.7546 387.112L94.405 390.565C95.0035 393.742 95.1471 394.021 96.2088 394.064C97.6745 394.122 122.36 393.473 122.96 393.359C123.206 393.313 123.118 391.737 122.764 389.858L122.121 386.441L120.471 386.461ZM124.41 402.563C122.222 398.816 117.58 396.912 114.019 398.3C112.048 399.068 109.958 402.212 108.823 406.116C107.735 409.862 105.916 410.845 104.18 408.625C102.801 406.861 102.311 403.895 102.877 400.732L103.345 398.117L101.008 398.238C99.723 398.304 98.2936 398.328 97.8323 398.29C96.6906 398.199 96.505 401.713 97.4 406.465C98.525 412.437 101.011 415.635 105.316 416.644C110.181 417.784 113.003 415.559 115.258 408.802C116.516 405.032 117.767 404.184 119.466 405.949C120.528 407.053 121.176 410.576 120.84 413.426C120.697 414.637 120.99 414.737 124.516 414.669C126.238 414.637 126.445 414.501 126.667 413.258C127.023 411.271 125.623 404.64 124.41 402.563ZM129.22 425.941C128.992 425.383 128.367 424.664 127.832 424.342C127.114 423.909 107.795 419.562 100.234 418.132C99.7416 418.039 99.7512 418.946 100.271 421.705L100.967 425.401L103.186 425.703L105.405 426.004L106.393 430.469L107.38 434.934L106.068 435.497C102.986 436.82 103.083 436.635 103.717 439.999L104.31 443.147L105.847 442.528C106.693 442.188 112.59 439.766 118.952 437.147L130.521 432.384L130.078 429.669C129.834 428.176 129.448 426.498 129.22 425.941ZM116.915 431.059L112.544 432.841L111.991 429.904C111.501 427.302 111.543 426.987 112.363 427.15C112.871 427.251 115.278 427.668 117.71 428.077C120.143 428.486 121.942 428.923 121.709 429.048C121.476 429.174 119.319 430.078 116.915 431.059Z" fill="white"/>
<g opacity="0.6">
<rect x="154.369" y="120.072" width="51" height="67" rx="5" transform="rotate(169.332 154.369 120.072)" fill="url(#paint2_linear_111_2)" stroke="#2F333C"/>
<rect x="141.509" y="95.0198" width="35" height="14" rx="5" transform="rotate(169.332 141.509 95.0198)" stroke="#2F333C"/>
<path d="M131.841 55.9994L137.019 83.4892" stroke="#2F333C"/>
<path d="M139.07 94.3779L144.248 121.868" stroke="#2F333C"/>
<path d="M117.08 58.7799L121.972 84.7533" stroke="#2F333C"/>
<path d="M124.587 98.6346L129.48 124.608" stroke="#2F333C"/>
<path d="M102.319 61.5605L107.497 89.0503" stroke="#2F333C"/>
<path d="M109.548 99.939L114.726 127.429" stroke="#2F333C"/>
</g>
</g>
<defs>
<linearGradient id="paint0_linear_111_2" x1="492.906" y1="428.464" x2="492.906" y2="864.464" gradientUnits="userSpaceOnUse">
<stop stop-color="#083EFD"/>
<stop offset="1" stop-opacity="0"/>
</linearGradient>
<linearGradient id="paint1_linear_111_2" x1="492.906" y1="428.464" x2="492.906" y2="864.464" gradientUnits="userSpaceOnUse">
<stop stop-color="#E42C64"/>
<stop offset="1" stop-color="#614AD3"/>
</linearGradient>
<linearGradient id="paint2_linear_111_2" x1="179.869" y1="120.072" x2="179.869" y2="187.072" gradientUnits="userSpaceOnUse">
<stop stop-color="#F9AA4B"/>
<stop offset="1" stop-color="#E8B579"/>
</linearGradient>
</defs>
</svg>
