<svg width="14" height="14" viewBox="0 0 14 14" fill="none" xmlns="http://www.w3.org/2000/svg">
<path d="M9.91675 1.1665H4.08342C2.47258 1.1665 1.16675 2.47234 1.16675 4.08317V9.9165C1.16675 11.5273 2.47258 12.8332 4.08342 12.8332H9.91675C11.5276 12.8332 12.8334 11.5273 12.8334 9.9165V4.08317C12.8334 2.47234 11.5276 1.1665 9.91675 1.1665Z" fill="white"/>
<path d="M9.33333 6.63268C9.40532 7.11815 9.32239 7.61397 9.09635 8.0496C8.87031 8.48523 8.51266 8.8385 8.07427 9.05915C7.63589 9.2798 7.13909 9.35661 6.65453 9.27864C6.16998 9.20067 5.72235 8.97189 5.37531 8.62485C5.02828 8.27782 4.7995 7.83019 4.72153 7.34563C4.64356 6.86108 4.72036 6.36428 4.94102 5.92589C5.16167 5.48751 5.51493 5.12986 5.95057 4.90382C6.3862 4.67778 6.88202 4.59485 7.36749 4.66684C7.8627 4.74028 8.32115 4.97103 8.67515 5.32502C9.02914 5.67901 9.25989 6.13747 9.33333 6.63268Z" stroke="#095171" stroke-linecap="round" stroke-linejoin="round"/>
<path d="M10.2083 3.7915H10.2141" stroke="#095171" stroke-width="2" stroke-linecap="round" stroke-linejoin="round"/>
</svg>
