<svg width="14" height="14" viewBox="0 0 14 14" fill="none" xmlns="http://www.w3.org/2000/svg">
<path d="M9.33325 4.6665C10.2615 4.6665 11.1517 5.03525 11.8081 5.69163C12.4645 6.34801 12.8333 7.23825 12.8333 8.1665V12.2498H10.4999V8.1665C10.4999 7.85708 10.377 7.56034 10.1582 7.34155C9.93942 7.12275 9.64267 6.99984 9.33325 6.99984C9.02383 6.99984 8.72709 7.12275 8.50829 7.34155C8.2895 7.56034 8.16659 7.85708 8.16659 8.1665V12.2498H5.83325V8.1665C5.83325 7.23825 6.202 6.34801 6.85838 5.69163C7.51476 5.03525 8.40499 4.6665 9.33325 4.6665Z" fill="white"/>
<path d="M3.50008 5.25H1.16675V12.25H3.50008V5.25Z" fill="white"/>
<path d="M2.33341 3.49984C2.97775 3.49984 3.50008 2.9775 3.50008 2.33317C3.50008 1.68884 2.97775 1.1665 2.33341 1.1665C1.68908 1.1665 1.16675 1.68884 1.16675 2.33317C1.16675 2.9775 1.68908 3.49984 2.33341 3.49984Z" fill="white"/>
</svg>
