<svg width="79" height="76" viewBox="0 0 79 76" fill="none" xmlns="http://www.w3.org/2000/svg">
<g clip-path="url(#clip0_1004_593)">
<path fill-rule="evenodd" clip-rule="evenodd" d="M0 0V76H79V0H0ZM14.1503 14.5149H18.3089V52.9106C18.3089 57.649 19.5167 58.6796 21.3146 58.6796C23.099 58.6796 24.2793 57.649 24.2793 52.9106V14.5149H28.4379V51.7459C28.4379 58.7197 24.8831 61.0354 21.3146 61.0354C17.7324 61.0354 14.1503 58.7197 14.1503 51.7459V14.5149ZM33.6258 14.5149H33.2003V61.0354H34.312H37.4001H40.2687C43.8508 61.0354 47.5153 58.7197 47.5153 52.9106V43.0054C47.5153 39.3245 46.0331 36.8214 44.0429 35.4696C45.8958 34.2648 47.2134 32.0161 47.2134 28.485V23.2568C47.2134 17.441 43.6313 14.5149 40.0628 14.5149H37.4001H33.6258ZM52.2777 14.5149H53.1012H56.4914H59.0578C62.6263 14.5149 66.3045 17.441 66.3045 23.2568V33.1271C66.3045 38.9498 62.6263 41.2387 59.0578 41.2387H56.4914V61.0354H52.2777V14.5149ZM37.4001 34.3049V16.8159H38.8962C40.6803 16.8159 43.0548 18.0005 43.0548 23.2153V28.485C43.0548 33.7161 40.694 34.3049 38.8962 34.3049H37.4001ZM56.4914 16.8573V38.9899H57.9461C59.7304 38.9899 62.1459 38.3608 62.1459 33.1271V23.2568C62.1459 18.0152 59.7304 16.8573 57.9461 16.8573H56.4914ZM37.4001 58.7731V36.6474H39.1569C40.941 36.6474 43.3567 37.7718 43.3567 43.0054V52.9106C43.3567 58.144 40.941 58.7731 39.1569 58.7731H37.4001Z" fill="#00573C"/>
</g>
<defs>
<clipPath id="clip0_1004_593">
<rect width="79" height="76" fill="white"/>
</clipPath>
</defs>
</svg>
