<svg width="170" height="31" viewBox="0 0 170 31" fill="none" xmlns="http://www.w3.org/2000/svg">
<g clip-path="url(#clip0_1004_583)">
<path fill-rule="evenodd" clip-rule="evenodd" d="M41.8887 21.4228H46.1008C50.9616 21.4228 52.9456 19.2545 52.9456 15.1948C52.9456 11.1001 50.5572 8.98376 46.1008 8.98376H41.8887V21.4228ZM44.4144 10.8761H45.7956C48.7563 10.8761 50.3664 12.2009 50.3664 15.2118C50.3664 17.9475 49.2447 19.5987 45.7651 19.5298H44.4144V10.8761Z" fill="white"/>
<path fill-rule="evenodd" clip-rule="evenodd" d="M54.3276 16.8712C54.3276 14.7229 55.5099 12.439 58.9176 12.439C62.3175 12.439 63.4843 14.9089 63.2911 17.4468L56.7617 17.4636C56.7848 18.851 57.3026 19.9846 58.933 19.9846C59.8989 19.9846 60.7256 19.3587 60.7256 18.3944H63.0902C62.9511 20.7797 60.9034 21.4398 58.593 21.4224C55.6876 21.3378 54.3276 19.4265 54.3276 16.8712ZM58.8402 13.8767C57.5035 13.8767 56.9239 14.9089 56.8544 16.0258H60.7256C60.7798 14.79 60.1385 13.8767 58.8402 13.8767Z" fill="white"/>
<path d="M72.9858 21.8348H70.6382L70.623 20.4043C70.2291 21.5377 69.1366 22.1139 67.7994 22.1139C66.2092 22.1139 64.7082 21.1369 64.6934 18.7994V13.1301H67.0712V18.4677C67.0563 19.7237 67.5393 20.4217 68.7059 20.439C69.7613 20.439 70.623 19.8283 70.623 18.1368V13.1301H72.9858V21.8348Z" fill="white"/>
<path d="M76.1746 12.8642V11.5391L78.4247 10.3658V12.8642H80.5732V14.4901H78.4247V18.5311C78.4247 19.3523 78.7087 19.8222 79.5539 19.8555C79.8745 19.8555 80.1654 19.8887 80.5877 19.7716V21.2138C79.4882 21.3649 78.2208 21.6498 77.1725 21.096C76.3784 20.6775 76.1746 19.9393 76.1746 18.7661V14.4901H74.3682V12.8642H76.1746Z" fill="white"/>
<path d="M89.9811 17.5298C90.3806 18.2743 90.3647 19.2551 89.8713 19.9319C89.0185 21.149 87.163 21.4538 85.7305 21.4203C83.6953 21.3014 81.8868 20.8114 81.9732 18.5449H84.4465C84.423 19.5257 85.0809 19.8809 86.02 19.9144C86.9281 19.9144 87.8361 19.6271 87.8361 18.849C87.8361 18.2233 87.2024 17.9528 86.3884 17.7835C85.4568 17.5976 84.7913 17.513 83.7499 17.1236C82.9199 16.7517 82.0983 16.126 82.0983 14.9425C82.0983 13.9609 82.9199 13.2171 83.9925 12.8109C84.7125 12.5236 85.6054 12.439 86.3725 12.439C88.0946 12.439 89.9653 12.9969 89.8561 15.0263H87.5307C87.5307 14.7222 87.4602 14.3839 87.1865 14.1811C86.6779 13.7582 85.112 13.7071 84.6268 14.4006C84.0788 15.5849 85.7699 15.6695 87.6405 16.1428C88.8229 16.3966 89.6211 16.853 89.9811 17.5298Z" fill="white"/>
<path d="M96.0618 12.439C97.9656 12.439 99.9372 13.2834 99.9372 15.597L97.5966 15.5795C97.5966 14.4992 96.9871 13.8404 95.8358 13.8914C95.5352 13.9081 95.2194 14.0093 94.963 14.1447C94.2408 14.5501 94.0149 15.6815 94.0149 16.8128C94.0149 18.0111 94.3162 19.1766 94.8579 19.5981C95.2194 19.9359 95.8662 20.0378 96.4232 19.9359C97.3485 19.7845 97.627 18.9058 97.6498 18.1465L99.9372 18.1297C99.9669 20.5438 97.9283 21.456 95.7985 21.4218C92.9541 21.3206 91.6445 19.5311 91.6445 16.8798C91.6445 14.1956 93.2326 12.439 96.0618 12.439Z" fill="white"/>
<path d="M101.319 8.98376H103.701V14.1864C104.327 13.0841 105.258 12.602 106.515 12.602C108.108 12.602 109.612 13.7905 109.612 15.4959V21.4228H107.26V16.1504C107.26 14.979 106.761 14.2042 105.637 14.2042C104.587 14.2042 103.687 14.8928 103.687 16.4779V21.4228H101.319V8.98376Z" fill="white"/>
<path fill-rule="evenodd" clip-rule="evenodd" d="M111.685 16.8712C111.685 14.7229 112.867 12.439 116.275 12.439C119.675 12.439 120.842 14.9089 120.649 17.4468L114.12 17.4636C114.142 18.851 114.66 19.9846 116.291 19.9846C117.256 19.9846 118.084 19.3587 118.084 18.3944H120.448C120.309 20.7797 118.261 21.4398 115.951 21.4224C113.045 21.3378 111.685 19.4265 111.685 16.8712ZM116.198 13.8767C114.854 13.8767 114.281 14.9089 114.212 16.0258H118.084C118.137 14.79 117.489 13.8767 116.198 13.8767Z" fill="white"/>
<path fill-rule="evenodd" clip-rule="evenodd" d="M134.994 21.0605C134.196 21.3186 133.163 21.4228 132.055 21.4228H127.58V8.98376H132.343C134.469 8.98376 136.693 9.65692 136.781 12.055C136.833 13.5732 135.807 14.5387 134.521 14.9701C135.511 15.2289 136.316 15.522 136.863 16.454C137.342 17.2819 137.379 18.3865 136.988 19.3006C136.574 20.1635 135.939 20.7325 134.994 21.0605ZM132.343 10.8471H129.928V14.0731H132.38C133.665 14.0731 134.329 13.5382 134.329 12.4857C134.329 11.5024 133.561 10.8471 132.343 10.8471ZM129.928 15.9192L132.586 15.9364C134.174 15.9192 134.758 16.8683 134.758 17.6791C134.758 18.7308 134.211 19.5766 132.498 19.5766H129.928V15.9192Z" fill="white"/>
<path fill-rule="evenodd" clip-rule="evenodd" d="M143.436 12.4392C145.681 12.4225 147.62 13.2854 147.62 15.0113V21.1357H145.521L145.43 19.9008C144.882 21.0001 143.474 21.5245 142.234 21.4064C140.507 21.3553 139.328 20.3742 139.328 18.7497C139.328 17.4812 140.05 16.6861 140.986 16.263C142.021 15.8001 143.34 15.7643 144.49 15.7331C144.77 15.7255 145.039 15.7181 145.293 15.705C145.414 14.2833 144.828 13.7085 143.527 13.7085C142.66 13.7253 142.006 14.1987 142.059 15.1127H139.716C139.746 13.133 141.299 12.4735 143.436 12.4392ZM141.724 18.6148C141.724 19.4266 142.257 19.8498 143.155 19.9175C145.24 19.8833 145.361 18.4287 145.308 17.0246C145.208 17.0246 145.101 17.0233 144.987 17.022C143.721 17.0072 141.738 16.9842 141.724 18.6148Z" fill="white"/>
<path d="M149.693 12.6667H152.067V14.0708C152.69 12.93 153.825 12.439 155.101 12.439C156.525 12.439 157.986 13.2809 157.986 15.3864V21.4227H155.613V16.0529C155.627 14.9128 155.079 14.0708 153.996 14.0708C152.928 14.0708 152.053 14.7721 152.053 16.3865V21.4227H149.693V12.6667Z" fill="white"/>
<path fill-rule="evenodd" clip-rule="evenodd" d="M163.066 8.98376H160.75V21.4228H163.066V8.98376ZM163.132 16.495L166.712 21.4228H169.734L165.779 16.4088L169.139 12.8256H166.375L163.132 16.495Z" fill="white"/>
<path fill-rule="evenodd" clip-rule="evenodd" d="M0.425293 0H30.8318V30.4065H0.425293V0ZM18.9021 7.20178L7.02469 23.0783H12.3923L24.3145 7.20178H18.9021ZM26.5989 26.1952H4.65816V4.21207H26.5989V26.1952Z" fill="white"/>
</g>
<defs>
<clipPath id="clip0_1004_583">
<rect width="170" height="30.4065" fill="white"/>
</clipPath>
</defs>
</svg>
