<svg width="150" height="40" viewBox="0 0 150 40" fill="none" xmlns="http://www.w3.org/2000/svg">
<g clip-path="url(#clip0_1004_584)">
<path fill-rule="evenodd" clip-rule="evenodd" d="M30.4776 8.98432C31.8127 8.98432 33.4709 7.22269 33.4709 5.00423V4.99826C33.4709 3.16795 32.0252 1.47798 29.3761 1.47798C24.1828 1.47798 17.9358 7.00771 12.2844 13.5228C7.34253 19.1928 2.57121 25.887 2.57121 30.7121C2.57121 33.0381 3.74159 34.5519 6.31881 34.5519C12.5329 34.5519 20.055 28.0727 23.4793 23.9134C26.8348 19.8646 32.3754 15.6009 36.7935 15.6009C38.5565 15.6009 40.0083 16.6609 40.0083 18.4524C40.0083 19.9691 39.3707 21.5546 38.6284 22.9968C38.5616 23.1023 38.5253 23.2243 38.5236 23.3491C38.5236 23.4566 38.6284 23.7372 39.6162 23.2804C43.0764 21.6561 45.8332 19.5362 48.7636 15.9532H52.4364L42.5825 28.3862C40.0771 31.5571 40.4692 32.9664 41.3852 32.9664C42.3011 32.9664 44.6329 31.9811 47.3508 29.3386C49.1182 27.5942 50.7691 25.736 52.2927 23.7761C52.3286 23.7761 52.3286 23.7372 52.3286 23.7372C56.0733 19.0883 58.5457 15.9532 58.5457 15.9532H62.5687L52.9093 28.0697C51.4636 29.9388 50.8649 31.2436 50.8649 32.0527C50.8649 32.7007 51.2451 32.9485 51.9216 32.9485C52.598 32.9485 53.972 32.7096 57.4292 29.9627C59.5559 28.2428 61.4971 26.3065 63.2212 24.1851L71.6024 13.69H66.3791L67.5046 12.4956H72.5932C74.7544 9.78751 76.4845 7.60189 76.4845 7.60189H80.4117C80.4117 7.60189 78.7444 9.71585 76.5204 12.4956H84.2161C86.3773 9.78751 88.1074 7.60189 88.1074 7.60189H92.0286C92.0286 7.60189 90.3614 9.71585 88.1373 12.4956H93.8006L92.7021 13.69H87.1825L75.8469 28.0936C74.3982 29.9627 73.7995 31.2675 73.7995 32.0766C73.7995 32.7246 74.2216 32.9724 74.8591 32.9724C76.694 32.9724 80.7918 30.954 85.7397 26.3439C89.2598 23.0207 93.5462 18.3837 98.2397 12.5703L99.2305 13.3794C98.0754 14.5642 97.5629 16.2312 97.8536 17.8582L98.2786 21.0231C98.383 21.9153 98.442 22.8122 98.4552 23.7104C98.4552 27.2307 97.3926 28.9206 96.5814 30.1896C95.2075 32.3006 92.3429 34.2025 89.7657 34.2025C87.5776 34.2025 85.9163 32.5842 85.9163 30.7509C85.9163 28.849 87.2603 27.8666 88.6372 27.8666C89.1264 27.8463 89.6027 28.026 89.9558 28.3642C90.309 28.7024 90.5085 29.1698 90.508 29.6581C90.508 30.7479 89.7298 31.3839 88.9545 31.3839C88.8333 31.3839 88.7375 31.3635 88.6556 31.346C88.5231 31.3177 88.4272 31.2972 88.3199 31.3839C88.1824 31.5107 88.1051 31.6898 88.1074 31.8766C88.1074 32.5484 88.7779 32.9336 89.5202 32.9336C92.5914 32.9336 94.0042 29.3416 94.8513 26.7708C95.6568 24.2886 96.0856 21.7001 96.1234 19.0913C96.148 18.3245 96.2179 17.5598 96.333 16.8012C93.3693 20.5758 90.0975 24.0992 86.5509 27.3352C81.9622 31.5243 77.7626 34.1339 74.7603 34.1339C71.7581 34.1339 71.4378 31.2436 72.3957 28.7056C67.5914 32.9007 64.8645 34.1667 63.0686 34.1667C60.0753 34.1667 59.6023 31.5511 60.5931 28.9087C56.181 32.9634 53.5589 34.1577 51.7629 34.1577C48.9402 34.1577 48.3027 31.8676 49.2216 29.2252C45.5908 33.0321 42.4777 34.1577 41.1008 34.1577C39.7239 34.1577 38.6613 33.0082 38.6613 31.5153C38.6613 29.6163 39.5443 27.7502 41.9838 24.6479L44.2109 21.9607L44.139 21.9249C42.0227 23.4767 39.6442 24.6367 37.1168 25.3496C33.0908 30.5957 28.3255 34.2264 24.973 34.2264C22.5454 34.2264 20.7824 32.5126 20.7824 30.0463C20.7808 29.5817 20.8402 29.119 20.959 28.6698C15.7656 33.6113 10.249 36 6.0584 36C2.34971 36 0.230469 33.3546 0.230469 29.058C0.230469 24.7614 2.66401 18.8286 8.52786 12.2598C16.7893 2.92312 24.3474 0 29.2205 0C33.0309 0 34.764 2.71112 34.764 5.00124C34.764 8.03185 31.9384 10.6743 29.433 10.6743C27.9363 10.6743 26.739 9.72481 26.739 8.45583C26.7186 7.96791 26.8988 7.49282 27.2379 7.14052C27.5769 6.78823 28.0454 6.58927 28.535 6.5897C28.9492 6.58067 29.3492 6.74062 29.6424 7.03256C29.9357 7.32451 30.0968 7.72316 30.0885 8.13635C30.0885 8.28529 30.0679 8.38507 30.0507 8.4682C30.0286 8.57505 30.0122 8.6544 30.0526 8.77532C30.1461 8.91636 30.3085 8.99623 30.4776 8.98432ZM63.2392 32.9724C62.6046 32.9724 62.1825 32.7246 62.1825 32.0766C62.1825 31.2675 62.7812 29.9627 64.23 28.0936L75.5655 13.69H83.2284C82.124 15.0767 81.1019 16.3619 80.1661 17.5386C77.751 20.5753 75.9106 22.8894 74.7154 24.3613C72.9576 26.3873 71.02 28.2511 68.9264 29.9298C65.4632 32.6738 63.9097 32.9724 63.2392 32.9724ZM35.4495 25.1884C34.6893 26.1391 33.8747 27.0453 33.01 27.9025C29.0947 31.8467 26.4816 32.9037 24.9969 32.9037C23.8655 32.9037 23.3357 32.1602 23.3357 31.4108C23.3357 29.049 25.88 25.4392 30.0466 21.3367C33.9379 17.5327 36.123 16.8997 37.0719 16.8997C37.4962 16.8654 37.9146 17.0159 38.2193 17.3124C38.524 17.6089 38.6852 18.0224 38.6613 18.4464C38.6011 19.4521 38.3374 20.4353 37.886 21.3367C36.6887 21.5128 34.779 22.6743 34.779 24.0239C34.7643 24.5072 35.0236 24.9575 35.4495 25.1884Z" fill="white"/>
<path d="M109.23 0H108.23V40H109.23V0Z" fill="#A39161"/>
<path fill-rule="evenodd" clip-rule="evenodd" d="M133.662 4H131.804L132.731 4.92744L133.662 4ZM131.238 6.41607L132.177 5.47977L131.238 4.54347V6.41607ZM130.163 18.3458H128.459V17.3681H130.163V18.3458ZM138.102 20.3601V19.0251H127.366V20.3601H138.102ZM143.927 22.5625C144.517 22.3523 145.217 22.1028 145.974 22.1028L145.971 22.1116C147.98 22.1116 149.23 23.745 149.23 25.4936C149.195 26.1884 149.065 26.8752 148.842 27.5345L147.82 30.751H147.796C147.045 30.718 146.39 30.2342 146.14 29.5282C146.451 29.0084 147.014 28.6899 147.621 28.6894C147.425 28.3314 147.111 28.0518 146.732 27.8978C146.801 27.3236 146.537 26.7601 146.051 26.4446C145.563 26.7714 145.293 27.3377 145.346 27.9214C144.978 28.082 144.668 28.351 144.457 28.6923C145.056 28.6725 145.617 28.9867 145.912 29.5075C145.527 30.1426 144.73 30.4586 143.956 30.4586C142.952 30.4586 142.475 29.8708 142.137 29.1679C141.794 29.8679 141.249 30.4586 140.244 30.4586C139.48 30.4586 138.68 30.1426 138.295 29.5075C138.589 28.9862 139.15 28.6718 139.75 28.6923C139.538 28.3516 139.228 28.0828 138.861 27.9214C138.912 27.3382 138.642 26.7732 138.156 26.4446C137.669 26.7603 137.404 27.3232 137.471 27.8978C137.093 28.0518 136.779 28.3314 136.583 28.6894C137.19 28.6905 137.752 29.0088 138.064 29.5282C137.812 30.2347 137.156 30.7184 136.405 30.751L135.421 27.5256C135.197 26.8665 135.066 26.1797 135.03 25.4847C135.03 23.7361 136.283 22.1028 138.289 22.1028C139.043 22.1028 139.741 22.3514 140.331 22.5615C140.666 22.6808 140.967 22.7876 141.222 22.8294C141.129 22.6883 141.082 22.5225 141.086 22.3538C141.086 21.778 141.554 21.3112 142.131 21.3112C142.709 21.3112 143.177 21.778 143.177 22.3538C143.18 22.5223 143.132 22.6877 143.041 22.8294C143.295 22.7878 143.593 22.6814 143.927 22.5625ZM140.289 26.9113H143.989L142.12 28.6274L140.289 26.9113ZM143.325 25.1509C145.02 25.3341 146.486 25.7417 147.686 26.6691C147.83 26.277 147.908 25.8638 147.917 25.4463C147.917 24.2442 147.165 23.4083 145.938 23.4083C145.376 23.4083 144.885 23.5556 144.353 23.7151C143.726 23.9033 143.043 24.1083 142.12 24.1083C141.197 24.1083 140.514 23.9035 139.887 23.7155C139.354 23.5558 138.862 23.4083 138.298 23.4083C137.119 23.4083 136.322 24.2442 136.322 25.4463C136.33 25.8633 136.406 26.2763 136.547 26.6691C137.753 25.7417 139.231 25.3341 140.914 25.1509C141.716 25.0705 142.524 25.0705 143.325 25.1509ZM127.014 17.1052C127.764 17.0691 128.42 16.5869 128.676 15.8824C128.361 15.3652 127.801 15.0476 127.194 15.0436C127.388 14.6838 127.703 14.4035 128.083 14.252C128.016 13.6781 128.28 13.1157 128.764 12.7989C129.254 13.1242 129.524 13.6919 129.467 14.2757C129.835 14.4354 130.146 14.7046 130.355 15.0466C129.756 15.0283 129.195 15.3419 128.898 15.8618C129.286 16.4968 130.083 16.8128 130.853 16.8128C131.854 16.8128 132.402 16.2221 132.74 15.5221C133.081 16.2251 133.558 16.8128 134.559 16.8128C135.332 16.8128 136.129 16.4968 136.514 15.8618C136.219 15.3429 135.661 15.0292 135.063 15.0466C135.272 14.7042 135.583 14.4349 135.952 14.2757C135.894 13.6919 136.164 13.1242 136.654 12.7989C137.139 13.1148 137.403 13.6779 137.335 14.252C137.714 14.4061 138.028 14.6857 138.224 15.0436C137.617 15.0453 137.055 15.3635 136.743 15.8824C136.996 16.5874 137.651 17.0702 138.402 17.1052H138.428L139.456 13.8858C139.681 13.227 139.812 12.5399 139.844 11.8448C139.844 10.0992 138.591 8.46589 136.586 8.46589C135.834 8.46589 135.138 8.71429 134.549 8.9246C134.21 9.04583 133.906 9.15439 133.647 9.19543C133.74 9.05352 133.789 8.88677 133.786 8.71694C133.756 8.16186 133.296 7.72691 132.739 7.72691C132.181 7.72691 131.721 8.16186 131.691 8.71694C131.689 8.88677 131.737 9.05352 131.831 9.19543C131.573 9.15448 131.271 9.04628 130.932 8.92535C130.344 8.71489 129.647 8.46589 128.895 8.46589C126.898 8.46589 125.636 10.0992 125.636 11.8448C125.67 12.5395 125.8 13.2262 126.021 13.8858L127.014 17.1052ZM130.894 13.2744L132.743 14.9786L134.595 13.2744H130.894ZM128.921 9.75957C129.486 9.75957 129.979 9.90789 130.512 10.0683C131.139 10.257 131.822 10.4625 132.743 10.4625C133.664 10.4625 134.346 10.2573 134.974 10.0686C135.507 9.90808 136.001 9.75957 136.568 9.75957C137.753 9.75957 138.544 10.5984 138.544 11.8005C138.534 12.2177 138.457 12.6306 138.316 13.0233C137.11 12.0988 135.635 11.6883 133.955 11.5081C133.151 11.4247 132.341 11.4247 131.537 11.5081C129.858 11.6883 128.376 12.0988 127.173 13.0233C127.032 12.6306 126.955 12.2177 126.945 11.8005C126.945 10.5984 127.742 9.75957 128.921 9.75957ZM142.703 19.1167L143.642 18.1804V20.053L142.703 19.1167ZM144.718 31.9679H146.424V30.9903H144.718V31.9679ZM131.457 17.755L132.731 16.9487L134.008 17.755L132.731 18.5732L131.457 17.755ZM143.065 17.6369H141.204L142.137 18.5614L143.065 17.6369ZM143.065 20.5905H141.204L142.137 19.6631L143.065 20.5905ZM134.23 4.53461L133.288 5.47091L134.23 6.40721V4.53461ZM141.58 19.1167L140.641 20.053V18.1804L141.58 19.1167ZM131.807 6.95658H133.664L132.734 6.02914L131.807 6.95658ZM147.506 32.662V34H136.769V32.662H147.506ZM127.171 22.1176C126.415 22.1176 125.717 22.3663 125.127 22.5764C124.793 22.6957 124.493 22.8024 124.238 22.8441C124.331 22.7034 124.38 22.5375 124.377 22.3686C124.347 21.8135 123.887 21.3786 123.33 21.3786C122.772 21.3786 122.312 21.8135 122.282 22.3686C122.278 22.5377 122.327 22.704 122.422 22.8441C122.166 22.8024 121.865 22.6954 121.529 22.576C120.939 22.366 120.24 22.1176 119.489 22.1176C117.486 22.1176 116.23 23.7509 116.23 25.4995C116.263 26.1942 116.393 26.881 116.615 27.5404L117.598 30.751C118.349 30.7168 119.005 30.2337 119.258 29.5282C118.945 29.0093 118.383 28.6911 117.776 28.6894C117.971 28.3305 118.285 28.0506 118.665 27.8978C118.596 27.3243 118.859 26.7613 119.343 26.4446C119.834 26.7697 120.104 27.3372 120.049 27.9214C120.419 28.079 120.73 28.3487 120.937 28.6923C120.339 28.6736 119.78 28.9877 119.486 29.5075C119.871 30.1426 120.671 30.4586 121.438 30.4586C122.439 30.4586 122.981 29.8679 123.322 29.1679C123.669 29.8708 124.143 30.4586 125.144 30.4586C125.92 30.4586 126.717 30.1426 127.099 29.5075C126.806 28.9867 126.246 28.6723 125.648 28.6923C125.858 28.351 126.168 28.082 126.537 27.9214C126.482 27.3382 126.751 26.7717 127.239 26.4446C127.726 26.7591 127.991 27.3233 127.92 27.8978C128.299 28.0518 128.613 28.3314 128.809 28.6894C128.202 28.6911 127.64 29.0093 127.328 29.5282C127.58 30.2342 128.236 30.7176 128.987 30.751H129.01L130.032 27.5345C130.255 26.8752 130.386 26.1884 130.42 25.4935C130.42 23.745 129.167 22.1116 127.162 22.1116L127.171 22.1176ZM121.482 26.9113L123.31 28.6274L125.18 26.9113H121.482ZM128.886 26.6691C127.68 25.7417 126.202 25.3341 124.519 25.1509C123.718 25.0705 122.911 25.0705 122.11 25.1509C120.425 25.3341 118.946 25.7417 117.744 26.6691C117.607 26.2717 117.536 25.8547 117.533 25.4345C117.533 24.2324 118.324 23.3965 119.509 23.3965C120.074 23.3965 120.567 23.5443 121.099 23.7041C121.725 23.892 122.406 24.0965 123.325 24.0965C124.245 24.0965 124.93 23.8916 125.559 23.7035C126.092 23.5439 126.585 23.3965 127.147 23.3965C128.37 23.3965 129.126 24.2324 129.126 25.4345C129.117 25.8515 129.041 26.2645 128.901 26.6573L128.886 26.6691ZM127.606 31.9738H125.9V30.9962H127.606V31.9738ZM142.137 30.5886L140.861 31.4067L142.137 32.2219L143.411 31.4067L142.137 30.5886ZM122.054 31.4067L123.325 30.5886L124.602 31.4067L123.325 32.2219L122.054 31.4067ZM137.862 31.9738H139.563V30.9962H137.862V31.9738ZM124.258 20.6053H122.401L123.325 19.6779L124.258 20.6053ZM135.309 18.3458H137.015V17.3681H135.309V18.3458ZM122.401 17.6369H124.258L123.325 18.5614L122.401 17.6369ZM124.827 18.1804L123.891 19.1167L124.827 20.053V18.1804ZM128.699 34H117.963V32.662H128.699V34ZM119.053 31.9827H120.76V31.005H119.053V31.9827ZM121.838 20.0677V18.1951L122.777 19.1314L121.838 20.0677Z" fill="#A39161"/>
</g>
<defs>
<clipPath id="clip0_1004_584">
<rect width="150" height="40" fill="white"/>
</clipPath>
</defs>
</svg>
