<svg width="184" height="98" viewBox="0 0 184 98" fill="none" xmlns="http://www.w3.org/2000/svg">
<path d="M41.2346 77.8529C39.4769 77.8529 38.1489 77.2408 37.3111 76.7375L36.7384 77.4815H35.9214L35.7788 72.166H36.6163C37.3308 74.4191 38.7008 76.8472 41.2139 76.8472C43.0543 76.8472 43.9524 75.7756 43.9524 74.2665C43.9524 73.063 43.2167 72.1222 41.746 71.5539C40.662 71.1382 39.7625 70.8331 38.8438 70.4163C37.1065 69.6295 36.1668 68.2291 36.1668 66.3044C36.1668 63.9204 38.1277 61.9739 40.9687 61.9739C42.4197 61.9739 43.6467 62.4994 44.4634 63.0018L44.9748 62.3247H45.8126L45.8939 67.4203H45.0561C44.3208 65.0801 43.4213 62.9589 41.0916 62.9589C39.7221 62.9589 38.7204 63.9425 38.7204 65.211C38.7204 66.4805 39.3956 67.2234 40.7853 67.8135C41.7249 68.2291 42.7673 68.5579 43.6047 68.9511C45.2815 69.6955 46.5884 70.7888 46.5884 73.1289C46.5884 75.8405 44.4228 77.8529 41.2346 77.8529Z" fill="white"/>
<path d="M50.7011 74.7253C50.7011 75.8629 51.2935 76.3663 52.0696 76.3663C52.9899 76.3663 53.48 75.8629 53.9298 75.3375L53.9703 71.663C52.0904 72.3193 50.7011 72.9314 50.7011 74.7253ZM56.2397 77.7656C54.8905 77.7656 54.2365 77.1974 54.0112 76.2344H53.9506C53.1733 77.1093 52.1929 77.7874 50.6395 77.7874C49.1068 77.7874 47.9834 76.7378 47.9834 75.1406C47.9834 73.326 49.0254 72.6038 50.1295 72.1663C51.3748 71.6413 53.0712 71.2038 53.9703 70.7232V69.6947C53.9703 69.0605 53.8484 67.4427 52.295 67.4427C51.6618 67.4427 51.1913 67.7054 50.9867 67.9019C51.0275 68.2295 51.2322 68.755 51.2322 69.345C51.2322 69.8911 50.8437 70.5047 49.7819 70.5047C48.8 70.5047 48.4528 69.8045 48.4528 69.1044C48.4528 67.6391 50.7011 66.6117 52.438 66.6117C54.7479 66.6117 56.5461 67.1579 56.5461 70.1539C56.5461 72.0138 56.4849 73.981 56.4849 75.2947C56.4849 75.8846 56.6471 76.2123 57.0367 76.4312C57.2607 76.5631 57.8129 76.541 58.1809 76.541V77.2839C57.6699 77.5025 56.8725 77.7656 56.2397 77.7656Z" fill="white"/>
<path d="M66.2781 64.0232C65.2764 64.0232 64.9091 63.1704 64.3573 61.9886C63.5184 62.2513 63.213 63.5636 63.213 66.1226V66.9834H65.2077V68.054H63.2328V75.5125C63.2328 76.6062 64.234 76.6283 65.1532 76.7371V77.4811H59.1859V76.7371C60.228 76.6722 60.6581 76.4754 60.6581 75.6226V68.054H58.7549V66.9834H60.6581V66.7635C60.6581 63.5268 62.3136 61.071 65.3578 61.071C66.8911 61.071 67.5652 61.7922 67.5652 62.6228C67.5652 63.2581 67.2585 64.0232 66.2781 64.0232Z" fill="white"/>
<path d="M124.077 70.2854C123.218 70.2854 122.646 69.782 122.646 69.017C122.646 68.6455 122.707 68.3606 122.768 68.1421C121.788 68.1642 120.97 69.105 120.746 69.4982V75.4907C120.746 75.9941 120.91 76.3218 121.257 76.4757C121.563 76.6283 122.319 76.7153 122.646 76.7371V77.4814H116.699V76.7371C117.087 76.7153 117.332 76.6942 117.619 76.6062C118.027 76.4757 118.191 76.1028 118.191 75.6226V69.2576C118.191 68.798 117.945 68.3389 117.619 68.0761C117.374 67.9232 116.965 67.8135 116.576 67.7927V67.0483L120.602 66.8077L120.746 66.9606V68.4697H120.786C121.707 67.2673 122.707 66.6768 123.708 66.6768C124.75 66.6768 125.446 67.4199 125.446 68.5795C125.446 69.4765 124.935 70.2854 124.077 70.2854Z" fill="white"/>
<path d="M129.008 74.7253C129.008 75.8629 129.601 76.3663 130.378 76.3663C131.297 76.3663 131.788 75.8629 132.237 75.3375L132.277 71.663C130.398 72.3193 129.008 72.9314 129.008 74.7253ZM134.547 77.7656C133.198 77.7656 132.544 77.1974 132.319 76.2344H132.258C131.48 77.1093 130.5 77.7874 128.947 77.7874C127.414 77.7874 126.291 76.7378 126.291 75.1406C126.291 73.326 127.333 72.6038 128.436 72.1663C129.684 71.6413 131.379 71.2038 132.277 70.7232V69.6947C132.277 69.0605 132.156 67.4427 130.602 67.4427C129.969 67.4427 129.499 67.7054 129.294 67.9019C129.336 68.2295 129.539 68.755 129.539 69.345C129.539 69.8911 129.151 70.5047 128.088 70.5047C127.108 70.5047 126.76 69.8045 126.76 69.1044C126.76 67.6391 129.008 66.6117 130.746 66.6117C133.055 66.6117 134.853 67.1579 134.853 70.1539C134.853 72.0138 134.792 73.981 134.792 75.2947C134.792 75.8846 134.956 76.2123 135.344 76.4312C135.568 76.5631 136.12 76.541 136.489 76.541V77.2839C135.977 77.5025 135.18 77.7656 134.547 77.7656Z" fill="white"/>
<path d="M141.829 77.8091C140.521 77.8091 139.336 77.2191 138.865 76.8683L138.62 77.5684H137.864L137.742 73.7414H138.436C138.783 74.9877 140.009 76.9563 141.849 76.9563C143.076 76.9563 143.729 76.3663 143.729 75.2726C143.729 74.1129 142.749 73.7414 141.093 73.2159C139.642 72.7567 138.008 71.9478 138.008 69.8484C138.008 68.0544 139.459 66.6334 141.808 66.6334C142.85 66.6334 143.791 66.9168 144.363 67.2238L144.588 66.6117H145.324L145.486 70.1318H144.771C144.424 68.7546 143.382 67.4865 141.972 67.4865C140.93 67.4865 140.275 68.0765 140.275 68.9075C140.275 70.089 141.072 70.3728 142.85 70.9421C144.71 71.5543 145.998 72.3853 145.998 74.3096C145.998 76.5627 144.138 77.8091 141.829 77.8091Z" fill="white"/>
<path d="M160.688 77.4811V76.7371C161.015 76.716 161.343 76.6942 161.587 76.6062C161.935 76.4536 162.057 76.1028 162.057 75.6226V70.4173C162.057 68.9068 161.424 68.1421 160.484 68.1421C159.156 68.1421 158.359 69.1474 158.113 69.607V75.5125C158.113 75.9941 158.277 76.2997 158.604 76.4975C158.89 76.6283 159.218 76.6942 159.523 76.7371V77.4811H154.067V76.7371C154.455 76.716 154.7 76.6942 154.986 76.6062C155.395 76.4754 155.559 76.1028 155.559 75.6226V69.2576C155.559 68.798 155.313 68.3385 154.986 68.0761C154.741 67.9232 154.332 67.8144 153.944 67.7923V67.0483L157.969 66.8077L158.113 66.9613V68.4704H158.154C158.993 67.6398 159.768 66.633 161.649 66.633C163.693 66.633 164.653 68.0334 164.653 70.1763V75.5345C164.653 76.0162 164.796 76.3217 165.185 76.5196C165.47 76.6501 165.716 76.6942 166.104 76.7371V77.4811H160.688Z" fill="white"/>
<path d="M19.1872 77.2018C20.1888 77.2018 20.5558 78.0547 21.1076 79.2365C21.9465 78.9737 22.2532 77.6614 22.2532 75.1025L22.2325 64.8952C22.2325 63.8005 21.2308 63.4395 20.3121 63.3297V62.5854L24.6642 62.3261L24.8082 62.4906L24.8072 71.8159V74.1178V74.3363C24.8072 77.5733 23.1527 80.1541 20.1074 80.1541C18.5738 80.1541 17.8997 79.4329 17.8997 78.6022C17.8997 77.9666 18.2067 77.2018 19.1872 77.2018Z" fill="white"/>
<path d="M147.35 77.4811V76.7371C147.719 76.716 147.984 76.6942 148.27 76.6062C148.658 76.4536 148.842 76.1028 148.842 75.6226V69.2576C148.842 68.798 148.617 68.4048 148.27 68.1421C148.025 67.967 147.453 67.8144 147.064 67.7923V67.0483L151.254 66.8077L151.397 66.9613V75.4907C151.397 75.972 151.602 76.3217 151.968 76.4975C152.275 76.6283 152.541 76.6942 152.888 76.7371V77.4811H147.35Z" fill="white"/>
<path d="M149.886 65.1274C149.054 65.1274 148.377 64.4203 148.377 63.571C148.377 62.7018 149.054 61.9739 149.886 61.9739C150.756 61.9739 151.452 62.6811 151.452 63.5303C151.452 64.3996 150.756 65.1274 149.886 65.1274Z" fill="white"/>
<path d="M27.855 77.7881C27.0231 77.7881 26.3469 77.0809 26.3469 76.2317C26.3469 75.3624 27.0231 74.6345 27.855 74.6345C28.7252 74.6345 29.4211 75.3417 29.4211 76.191C29.4211 77.0602 28.7252 77.7881 27.855 77.7881Z" fill="white"/>
<path d="M98.6481 77.8529C96.8901 77.8529 95.5621 77.2408 94.7246 76.7375L94.1512 77.4815H93.3352L93.1919 72.166H94.0294C94.7444 74.4191 96.1139 76.8472 98.6274 76.8472C100.468 76.8472 101.365 75.7756 101.365 74.2665C101.365 73.063 100.63 72.1222 99.1593 71.5539C98.0748 71.1382 97.1759 70.8331 96.2572 70.4163C94.5199 69.6295 93.5796 68.2291 93.5796 66.3044C93.5796 63.9204 95.5414 61.9739 98.3822 61.9739C99.8328 61.9739 101.06 62.4994 101.877 63.0018L102.388 62.3247H103.225L103.307 67.4203H102.469C101.734 65.0801 100.834 62.9589 98.5048 62.9589C97.1353 62.9589 96.1337 63.9425 96.1337 65.211C96.1337 66.4805 96.809 67.2234 98.1983 67.8135C99.1386 68.2291 100.181 68.5579 101.018 68.9511C102.694 69.6955 104.002 70.7888 104.002 73.1289C104.002 75.8405 101.836 77.8529 98.6481 77.8529Z" fill="white"/>
<path d="M108.114 74.7253C108.114 75.8629 108.706 76.3663 109.482 76.3663C110.403 76.3663 110.892 75.8629 111.342 75.3375L111.383 71.663C109.503 72.3193 108.114 72.9314 108.114 74.7253ZM113.652 77.7656C112.303 77.7656 111.649 77.1974 111.423 76.2344H111.363C110.586 77.1093 109.606 77.7874 108.052 77.7874C106.52 77.7874 105.396 76.7378 105.396 75.1406C105.396 73.326 106.439 72.6038 107.542 72.1663C108.787 71.6413 110.484 71.2038 111.383 70.7232V69.6947C111.383 69.0605 111.261 67.4427 109.708 67.4427C109.075 67.4427 108.604 67.7054 108.4 67.9019C108.44 68.2295 108.645 68.755 108.645 69.345C108.645 69.8911 108.256 70.5047 107.194 70.5047C106.213 70.5047 105.865 69.8045 105.865 69.1044C105.865 67.6391 108.114 66.6117 109.85 66.6117C112.16 66.6117 113.959 67.1579 113.959 70.1539C113.959 72.0138 113.897 73.981 113.897 75.2947C113.897 75.8846 114.06 76.2123 114.449 76.4312C114.674 76.5631 115.225 76.541 115.593 76.541V77.2839C115.082 77.5025 114.285 77.7656 113.652 77.7656Z" fill="white"/>
<path d="M74.1848 70.2854C73.3261 70.2854 72.7545 69.782 72.7545 69.017C72.7545 68.6455 72.8158 68.3606 72.8764 68.1421C71.8956 68.1642 71.0779 69.105 70.8536 69.4982V75.4907C70.8536 75.9941 71.0176 76.3218 71.3648 76.4757C71.6716 76.6283 72.4267 76.7153 72.7545 76.7371V77.4814H66.8071V76.7371C67.1948 76.7153 67.4402 76.6942 67.7273 76.6062C68.1347 76.4757 68.2989 76.1028 68.2989 75.6226V69.2576C68.2989 68.798 68.0538 68.3389 67.7273 68.0761C67.4818 67.9232 67.073 67.8135 66.6838 67.7927V67.0483L70.7109 66.8077L70.8536 66.9606V68.4697H70.8944C71.8146 67.2673 72.8158 66.6768 73.8164 66.6768C74.8584 66.6768 75.5532 67.4199 75.5532 68.5795C75.5532 69.4765 75.0433 70.2854 74.1848 70.2854Z" fill="white"/>
<path d="M79.1164 74.7253C79.1164 75.8629 79.7088 76.3663 80.4864 76.3663C81.4052 76.3663 81.8958 75.8629 82.3451 75.3375L82.3861 71.663C80.5061 72.3193 79.1164 72.9314 79.1164 74.7253ZM84.655 77.7656C83.3063 77.7656 82.6519 77.1974 82.4265 76.2344H82.3663C81.5891 77.1093 80.6083 77.7874 79.0548 77.7874C77.5225 77.7874 76.3987 76.7378 76.3987 75.1406C76.3987 73.326 77.4412 72.6038 78.5449 72.1663C79.7915 71.6413 81.4866 71.2038 82.3861 70.7232V69.6947C82.3861 69.0605 82.2638 67.4427 80.7104 67.4427C80.0772 67.4427 79.6066 67.7054 79.4024 67.9019C79.444 68.2295 79.6476 68.755 79.6476 69.345C79.6476 69.8911 79.2594 70.5047 78.1962 70.5047C77.2158 70.5047 76.8681 69.8045 76.8681 69.1044C76.8681 67.6391 79.1164 66.6117 80.8534 66.6117C83.1633 66.6117 84.9618 67.1579 84.9618 70.1539C84.9618 72.0138 84.9002 73.981 84.9002 75.2947C84.9002 75.8846 85.064 76.2123 85.452 76.4312C85.6764 76.5631 86.2282 76.541 86.5966 76.541V77.2839C86.0853 77.5025 85.2883 77.7656 84.655 77.7656Z" fill="white"/>
<path d="M104.09 33.5168C103.6 32.9506 103.908 32.5852 104.169 32.0944C104.633 31.2135 104.74 30.8284 105.518 29.3018C105.934 28.4882 106.142 27.8898 106.037 27.3633C105.795 26.2931 104.501 25.5139 104.254 25.3207C104.005 25.1288 103.4 24.7075 103.311 24.5198C103.247 24.3859 103.237 24.2329 103.287 24.1336C103.321 24.0607 103.867 23.0168 103.806 22.841C103.685 22.4832 101.73 21.4196 100.121 20.7717C98.1741 20.075 97.1147 19.7902 95.3711 19.3517C93.2164 18.8077 91.9433 17.8262 91.9433 17.8262C91.9433 17.8262 90.6712 18.8077 88.5157 19.3517C86.7721 19.7902 85.7135 20.075 83.7663 20.7717C82.1571 21.4196 80.2016 22.4832 80.0818 22.841C80.0216 23.0168 80.5664 24.0607 80.6013 24.1336C80.6488 24.2329 80.6407 24.3859 80.5755 24.5198C80.4875 24.7075 79.8811 25.1288 79.6335 25.3207C79.3848 25.5139 78.0917 26.2931 77.8487 27.3633C77.7444 27.8898 77.9523 28.4882 78.3696 29.3018C79.1468 30.8284 79.2546 31.2135 79.7173 32.0944C79.9786 32.5852 80.2864 32.9506 79.7962 33.5168C78.0847 35.1704 77.0472 37.5635 77.3306 40.2624C77.5641 42.3559 78.5834 44.6563 79.9529 46.1573C81.0662 47.4051 82.0466 48.2789 83.8451 49.4428C85.2137 50.3282 90.2024 52.5676 91.9433 53.9111C93.6834 52.5676 98.6726 50.3282 100.041 49.4428C101.841 48.2789 102.821 47.4051 103.935 46.1573C105.304 44.6563 106.322 42.3559 106.556 40.2624C106.839 37.5635 105.802 35.1704 104.09 33.5168ZM102.43 46.3889C101.692 47.1932 100.664 48.0439 98.0442 49.4382C95.5902 50.6997 93.7293 51.4473 91.9433 52.7549C90.1574 51.4473 88.2963 50.6997 85.8434 49.4382C83.2225 48.0439 82.1942 47.1932 81.4564 46.3889C79.1746 43.9587 78.4193 42.0202 78.266 39.6942C78.2903 37.4975 79.0443 35.5072 80.6523 33.9297C81.5377 33.1278 81.1975 32.8616 80.8859 32.275C80.4199 31.3966 80.5003 31.3998 79.7173 29.7683C79.3662 29.0288 78.7309 27.9838 78.9665 27.2858C79.2514 26.6666 80.6721 25.7143 80.7569 25.6574C81.2289 25.3428 81.5088 25.1425 81.8561 24.8439C82.0537 24.6753 81.9117 24.4704 81.8723 24.3914C81.8339 24.3128 81.2659 23.4183 81.3542 23.2538C81.8212 22.3755 86.2596 20.9289 88.7228 20.3585C89.9078 20.0866 91.9433 18.9627 91.9433 18.9627C91.9433 18.9627 93.9791 20.0866 95.1637 20.3585C97.6286 20.9289 102.066 22.3755 102.533 23.2538C102.621 23.4183 102.053 24.3128 102.014 24.3914C101.976 24.4704 101.834 24.6753 102.03 24.8439C102.378 25.1425 102.659 25.3428 103.13 25.6574C103.216 25.7143 104.636 26.6666 104.921 27.2858C105.156 27.9838 104.52 29.0288 104.169 29.7683C103.388 31.3998 103.468 31.3966 103 32.275C102.689 32.8616 102.35 33.1278 103.235 33.9297C104.842 35.5072 105.596 37.4975 105.621 39.6942C105.467 42.0202 104.712 43.9587 102.43 46.3889Z" fill="white"/>
<path d="M103.701 40.341C103.455 40.1211 102.825 40.2936 102.745 40.4174C102.487 39.5608 101.972 38.8273 101.342 38.3573C101.342 38.3573 101.339 38.1967 101.418 38.1177C101.566 38.0392 101.988 38.0925 102.326 37.9363C102.586 37.8171 102.638 38.6074 103.339 38.5057C103.77 38.4418 103.825 38.0391 103.644 37.9687C103.616 37.9581 103.592 37.9514 103.556 37.9514C103.524 37.9536 103.518 37.9595 103.504 37.9652C103.423 37.9939 103.325 38.1493 103.235 38.1689C102.871 38.2465 102.821 37.7038 102.821 37.4698C102.821 37.3681 103.028 36.7177 102.871 36.2824C102.675 35.7327 102.055 35.4307 101.783 35.2479C101.702 35.1971 101.566 34.8764 101.73 34.7572C102.119 34.4723 101.366 34.2145 101.236 34.8604C101.165 35.2167 101.31 35.3114 101.288 35.5072C101.263 35.7397 100.557 36.213 101.134 36.6434C101.444 36.8763 101.54 36.4954 101.392 36.3081C101.107 35.9456 102.404 35.4029 102.456 36.7731C102.473 37.2383 101.824 37.5136 101.488 37.6227C101.419 37.6456 101.344 37.6676 101.288 37.6702C101.218 37.6722 101.218 37.6722 101.162 37.6702C99.7264 37.5982 98.4606 36.0996 98.4606 34.3036C98.4606 33.4519 98.7365 32.6672 99.1864 32.0702C99.4956 31.658 99.9311 31.3086 100.301 31.1073C100.671 30.9049 100.852 30.8501 101.233 30.7509C101.866 30.5853 102.557 30.4338 102.509 29.9486C102.456 29.4199 101.937 29.1468 101.652 29.4315C101.521 29.6919 101.963 29.716 101.937 29.9753C101.914 30.2163 101.481 30.2763 101.185 30.0794C101.034 29.9777 100.978 29.8203 100.952 29.561C100.848 28.5276 102.923 27.7776 102.923 27.7776C102.923 27.7776 101.21 27.2606 101.161 26.7698C101.115 26.3566 101.314 26.3032 101.496 26.5372C101.602 26.6747 101.912 26.3808 101.548 26.0465C101.263 25.8648 100.845 26.0268 100.718 26.4597C100.587 26.8992 98.979 24.9598 98.7717 24.3905C98.6707 24.1172 98.7744 23.505 99.1089 23.6163C99.3397 23.6938 99.2919 23.8499 99.2134 23.9516C99.1188 24.0768 99.199 24.2943 99.3694 24.3139C99.5371 24.3325 99.7949 24.1463 99.8103 23.8232C99.8346 23.2019 98.6401 22.7369 98.3317 23.6938C98.2668 23.8927 98.0964 23.6163 97.9666 23.512C97.6799 23.284 95.8903 21.1604 93.502 21.1352C92.5906 21.1246 93.008 21.3512 92.5689 21.3144C92.2561 21.2888 92.0496 20.8503 91.918 20.6963C91.7864 20.8503 91.579 21.2888 91.2662 21.3144C90.8271 21.3512 91.2454 21.1246 90.333 21.1352C87.9457 21.1604 86.1553 23.284 85.8693 23.512C85.738 23.6163 85.5696 23.8927 85.5045 23.6938C85.1946 22.7369 84 23.2019 84.0257 23.8232C84.0409 24.1463 84.2976 24.3325 84.4659 24.3139C84.6357 24.2943 84.717 24.0768 84.6216 23.9516C84.5437 23.8499 84.4948 23.6938 84.7262 23.6163C85.0618 23.505 85.1654 24.1172 85.0632 24.3905C84.8576 24.9598 83.247 26.8992 83.1171 26.4597C82.9893 26.0268 82.5723 25.8648 82.2863 26.0465C81.924 26.3808 82.2328 26.6747 82.3384 26.5372C82.5209 26.3032 82.7209 26.3566 82.6754 26.7698C82.6255 27.2606 80.9132 27.7776 80.9132 27.7776C80.9132 27.7776 82.9882 28.5276 82.8836 29.561C82.8568 29.8203 82.8012 29.9777 82.6501 30.0794C82.3536 30.2763 81.9215 30.2163 81.8982 29.9753C81.8725 29.716 82.3142 29.6919 82.1828 29.4315C81.8982 29.1468 81.3802 29.4199 81.3267 29.9486C81.2777 30.4338 81.9691 30.5853 82.6022 30.7509C82.9822 30.8501 83.1636 30.9049 83.5341 31.1073C83.9049 31.3086 84.3395 31.658 84.6483 32.0702C85.0981 32.6672 85.3745 33.4519 85.3745 34.3036C85.3745 36.0996 84.1092 37.5982 82.6734 37.6702C82.6188 37.6722 82.6188 37.6722 82.5466 37.6702C82.491 37.6676 82.4166 37.6456 82.3469 37.6227C82.0109 37.5136 81.3615 37.2383 81.3802 36.7731C81.4313 35.4029 82.7279 35.9456 82.443 36.3081C82.2955 36.4954 82.3909 36.8763 82.7022 36.6434C83.2798 36.213 82.5723 35.7397 82.5466 35.5072C82.5258 35.3114 82.6699 35.2167 82.5991 34.8604C82.4687 34.2145 81.7158 34.4723 82.1049 34.7572C82.2691 34.8764 82.1331 35.1971 82.0528 35.2479C81.7799 35.4307 81.1594 35.7327 80.9654 36.2824C80.8086 36.7177 81.0143 37.3681 81.0143 37.4698C81.0143 37.7038 80.9654 38.2465 80.5994 38.1689C80.51 38.1493 80.4135 37.9939 80.3321 37.9652C80.317 37.9595 80.3114 37.9536 80.2786 37.9514C80.2427 37.9514 80.2194 37.9581 80.1926 37.9687C80.0102 38.0391 80.0648 38.4418 80.4969 38.5057C81.1963 38.6074 81.2488 37.8171 81.5102 37.9363C81.8483 38.0925 82.2691 38.0392 82.4177 38.1177C82.4955 38.1967 82.4945 38.3573 82.4945 38.3573C81.8623 38.8273 81.3489 39.5608 81.0897 40.4174C81.0108 40.2936 80.3797 40.1211 80.1346 40.341C79.849 40.5978 79.9369 40.9219 79.9521 41.0377C79.9768 41.246 80.4215 41.2959 80.367 40.8826C80.3149 40.4936 80.834 40.6244 80.9132 41.0124C80.991 41.3607 80.9294 41.767 80.9386 41.9683C81.0143 43.7019 82.3338 44.7343 83.7271 44.7343C83.9595 44.7343 84.1803 44.7122 84.3906 44.6634C84.6378 44.6055 84.7787 45.0453 84.9854 45.4078C84.9854 45.4078 84.1303 45.7431 84.2349 46.3889C84.3381 47.0347 84.933 47.3715 85.3745 46.8032C85.5569 46.5695 85.2467 46.5439 84.9086 46.5439C84.6529 46.3623 84.6775 46.0511 85.2977 45.9238C86.0507 45.7687 86.7234 47.3715 86.9861 48.0439C87.2438 48.715 88.6706 50.5769 90.6179 50.1374C90.7478 50.1082 91.918 51.8685 91.918 51.8685C91.918 51.8685 93.0873 50.1082 93.2171 50.1374C95.1645 50.5769 96.5926 48.715 96.8504 48.0439C97.1119 47.3715 97.7854 45.7687 98.5382 45.9238C99.1575 46.0511 99.1819 46.3623 98.9267 46.5439C98.5887 46.5439 98.2776 46.5695 98.4606 46.8032C98.9033 47.3715 99.4965 47.0347 99.6011 46.3889C99.7057 45.7431 98.8492 45.4078 98.8492 45.4078C99.0575 45.0453 99.1972 44.6055 99.4442 44.6634C99.6552 44.7122 99.8752 44.7343 100.109 44.7343C101.501 44.7343 102.821 43.7019 102.896 41.9683C102.905 41.767 102.844 41.3607 102.923 41.0124C103.001 40.6244 103.52 40.4936 103.468 40.8826C103.413 41.2959 103.858 41.246 103.883 41.0377C103.898 40.9219 103.987 40.5978 103.701 40.341ZM91.6151 23.2273C91.8495 22.8929 91.9261 22.4772 91.9784 22.6846C92.0677 23.0399 92.3688 23.2019 92.2389 23.3061C92.0388 23.4658 91.5303 23.351 91.6151 23.2273ZM91.918 51.0169L91.2418 50.0332L91.918 49.104L92.5933 50.0332L91.918 51.0169ZM102.483 41.8908C102.483 43.2343 101.407 44.321 100.083 44.321C99.4947 44.321 98.9565 44.1092 98.5418 43.7538C98.2443 43.4447 98.018 42.9484 98.018 42.4471C98.018 41.5793 98.6211 40.8655 99.3505 40.7658C99.4073 40.7588 99.4487 40.7532 99.5245 40.7588C99.5993 40.7648 99.639 40.7774 99.7093 40.8318C99.776 40.8837 99.8508 40.9959 99.9374 41.2716C100.172 41.3734 100.2 41.1822 100.2 40.9612C100.2 40.5978 99.8103 40.4441 99.3397 40.2634C98.998 40.1305 99.2955 39.3991 98.7717 39.3584C98.4336 39.3317 98.3047 39.4883 98.3813 39.7198C98.4336 39.9208 98.6184 39.7369 98.7194 39.7969C98.9394 39.9323 98.815 40.2288 98.7014 40.42C98.64 40.5206 98.6292 40.5297 98.5887 40.5781C98.5472 40.6269 98.4931 40.6756 98.4498 40.7195C97.9909 41.1836 97.7078 41.7957 97.7078 42.4345C97.7078 42.88 97.9026 43.4171 98.0441 43.631C98.1848 43.844 98.4868 44.2053 98.7347 44.3638C98.7347 44.3638 98.9763 44.9437 98.356 45.4597C98.0441 45.7179 97.7331 45.3811 96.6945 47.1908C96.6539 47.2616 96.5448 47.0695 96.3257 46.912C96.2545 46.86 96.1526 46.7951 96.076 46.7685C95.9985 46.7418 95.939 46.7256 95.8497 46.7221C95.5161 46.7105 95.0221 46.919 94.9806 47.45C94.9355 48.0706 95.5522 47.7581 95.7073 47.242C95.9101 47.1122 96.0913 47.3472 96.2284 47.603C96.4168 47.9548 96.0201 48.7939 94.9563 49.466C93.997 50.0609 92.2813 49.775 92.3336 48.6374C92.3733 47.7973 93.5291 47.603 93.3731 48.2765C93.2785 48.6817 94.3594 48.7406 93.8419 47.8622C93.3208 46.9838 92.1272 47.7581 91.918 48.2765C91.7079 47.7581 90.5161 46.9838 89.993 47.8622C89.477 48.7406 90.5575 48.6817 90.4638 48.2765C90.3069 47.603 91.4627 47.7973 91.5006 48.6374C91.5547 49.775 89.8394 50.0609 88.8797 49.466C87.8144 48.7939 87.4193 47.9548 87.6076 47.603C87.7436 47.3472 87.925 47.1122 88.1282 47.242C88.2838 47.7581 88.8995 48.0706 88.8544 47.45C88.8135 46.919 88.3187 46.7105 87.9852 46.7221C87.8958 46.7256 87.8366 46.7418 87.7598 46.7685C87.683 46.7951 87.5819 46.86 87.5087 46.912C87.2918 47.0695 87.1812 47.2616 87.1407 47.1908C86.1017 45.3811 85.7915 45.7179 85.4802 45.4597C84.8586 44.9437 85.1016 44.3638 85.1016 44.3638C85.3488 44.2053 85.651 43.844 85.7915 43.631C85.9323 43.4171 86.1275 42.88 86.1275 42.4345C86.1275 41.7957 85.844 41.1836 85.3862 40.7195C85.3432 40.6756 85.2886 40.6269 85.2478 40.5781C85.2072 40.5297 85.1946 40.5206 85.134 40.42C85.0213 40.2288 84.8959 39.9323 85.1168 39.7969C85.2164 39.7369 85.4024 39.9208 85.4549 39.7198C85.5312 39.4883 85.4024 39.3317 85.0632 39.3584C84.5391 39.3991 84.8364 40.1305 84.4948 40.2634C84.0257 40.4441 83.6352 40.5978 83.6352 40.9612C83.6352 41.1822 83.663 41.3734 83.8979 41.2716C83.9849 40.9959 84.0592 40.8837 84.1253 40.8318C84.1975 40.7774 84.236 40.7648 84.3113 40.7588C84.3856 40.7532 84.4275 40.7588 84.4846 40.7658C85.2143 40.8655 85.8172 41.5793 85.8172 42.4471C85.8172 42.9484 85.5907 43.4447 85.2942 43.7538C84.8783 44.1092 84.3416 44.321 83.7538 44.321C82.4279 44.321 81.3534 43.2343 81.3534 41.8908C81.1963 39.8492 82.443 38.6074 83.5784 37.9812C84.8551 37.4376 85.7637 36.0197 85.7637 34.3569C85.7637 32.9078 85.141 31.7299 84.0919 31.0087C83.857 30.8481 83.5422 30.694 83.4157 30.6316C83.2904 30.5702 83.2333 30.532 83.1995 30.5032C82.9684 30.3074 83.1358 30.2299 83.247 29.9753C83.2925 29.8746 83.3446 29.789 83.3531 29.5785C83.3612 29.3677 83.2935 29.1804 83.247 29.0692C83.2006 28.958 83.1171 28.8805 83.1439 28.656C83.247 27.6748 84.287 28.0947 84.3624 28.4742C84.3845 28.5795 84.3891 28.6538 84.3845 28.7068C84.3695 28.8517 84.28 28.9152 84.2081 28.9152C84.136 28.9152 84.0976 28.8805 84.0581 28.8749C83.807 28.8342 83.9246 29.0531 83.9465 29.1225C84.0257 29.3551 84.2511 29.427 84.5892 29.2418C84.9284 29.0566 84.9622 28.7637 85.0389 28.7858C85.5347 28.9278 85.7637 28.3725 85.5569 28.3459C85.3488 28.3217 85.09 28.5784 84.9086 28.3459C84.286 27.5486 83.296 27.6204 83.0646 27.9327C82.7022 28.4234 82.4687 28.2427 82.4687 28.2427C82.4687 28.2427 81.9771 27.8828 82.0286 27.8552C82.9614 27.3381 83.196 27.1644 84.4416 25.9423C84.754 25.5848 85.3224 24.8566 85.8148 24.2505C86.1775 23.8036 86.3529 23.6012 86.6269 23.3489C86.9012 23.0978 87.0685 22.975 87.3136 22.7968C88.5012 21.9346 90.1563 20.9927 91.1904 21.8062C91.6881 22.1998 91.5006 22.6337 91.3185 22.7877C91.112 22.9947 90.9686 22.2843 90.8794 22.3236C90.5936 22.3769 91.0354 22.841 90.8271 23.0469C90.6333 23.2549 90.2853 23.0028 90.3069 22.7877C90.3592 22.298 89.2178 23.2273 90.5936 23.6163C90.8848 23.6984 90.8794 23.512 91.0858 23.5377C91.2932 23.5654 91.4897 23.7839 91.918 23.7839C92.3471 23.7839 92.5419 23.5654 92.7483 23.5377C92.9566 23.512 92.9512 23.6984 93.2415 23.6163C94.6182 23.2273 93.4777 22.298 93.5291 22.7877C93.5507 23.0028 93.2018 23.2549 93.008 23.0469C92.8006 22.841 93.2415 22.3769 92.9566 22.3236C92.8664 22.2843 92.7231 22.9947 92.5175 22.7877C92.3336 22.6337 92.147 22.1998 92.6456 21.8062C93.6778 20.9927 95.334 21.9346 96.5214 22.7968C96.7675 22.975 96.9334 23.0978 97.2084 23.3489C97.4833 23.6012 97.6573 23.8036 98.0198 24.2505C98.5129 24.8566 99.0809 25.5848 99.3937 25.9423C100.639 27.1644 100.873 27.3381 101.806 27.8552C101.859 27.8828 101.366 28.2427 101.366 28.2427C101.366 28.2427 101.134 28.4234 100.77 27.9327C100.541 27.6204 99.5506 27.5486 98.9267 28.3459C98.7446 28.5784 98.4868 28.3217 98.2776 28.3459C98.0712 28.3725 98.3002 28.9278 98.7969 28.7858C98.8726 28.7637 98.9069 29.0566 99.2459 29.2418C99.584 29.427 99.8103 29.3551 99.8887 29.1225C99.9112 29.0531 100.028 28.8342 99.7778 28.8749C99.7372 28.8805 99.6994 28.9152 99.6273 28.9152C99.5551 28.9152 99.465 28.8517 99.4515 28.7068C99.446 28.6538 99.4514 28.5795 99.4722 28.4742C99.5488 28.0947 100.587 27.6748 100.691 28.656C100.718 28.8805 100.634 28.958 100.587 29.0692C100.541 29.1804 100.474 29.3677 100.482 29.5785C100.49 29.789 100.542 29.8746 100.587 29.9753C100.7 30.2299 100.867 30.3074 100.635 30.5032C100.602 30.532 100.545 30.5702 100.42 30.6316C100.294 30.694 99.978 30.8481 99.7427 31.0087C98.6941 31.7299 98.0712 32.9078 98.0712 34.3569C98.0712 36.0197 98.9799 37.4376 100.257 37.9812C101.392 38.6074 102.638 39.8492 102.483 41.8908Z" fill="white"/>
<path d="M95.4747 38.1987L95.4513 38.143C95.4297 37.6073 95.2485 36.9801 94.9086 36.369C94.3721 35.4072 93.4751 34.707 92.9837 34.6028C93.0667 34.5198 93.0919 34.5103 93.128 34.4815C93.6851 34.0335 94.95 34.6063 95.5442 35.671C96.1221 36.4638 96.0328 37.7 95.4747 38.1987ZM94.254 39.437C93.8402 39.6682 93.5454 39.7875 93.1676 39.8479C92.4752 39.9566 92.4888 39.8825 92.4888 39.7969V35.5588C92.4888 35.5588 94.4614 36.127 94.538 38.4787C94.5461 38.6821 94.5903 39.2806 94.254 39.437ZM92.5158 41.9957V40.9345C93.1893 40.9135 93.7852 40.7654 94.099 40.6255C94.099 40.9809 93.3696 41.7168 92.5158 41.9957ZM92.4843 29.0598C92.8737 29.0931 93.2497 29.1927 93.2497 29.1927C93.2497 29.1927 93.8862 29.3478 93.9944 29.5098C94.1395 29.7273 94.1675 30.1728 94.1504 30.6716C94.0809 31.9495 93.8573 32.4459 93.4589 33.0026C93.329 33.1853 93.1649 33.131 92.954 33.0903C92.7628 33.051 92.5762 33.0313 92.4888 33.0173L92.4843 29.0598ZM92.4915 27.5945C93.0243 27.7288 93.4751 28.1301 93.5761 28.4753C93.4814 28.4508 93.0847 28.3017 92.4888 28.2333L92.4915 27.5945ZM91.3465 34.3174H90.2556V33.7491C90.6721 33.801 90.8813 33.8266 91.3465 33.8266V34.3174ZM91.3203 39.8197C91.3203 39.9158 90.8065 39.8825 90.4909 39.6419C90.2917 39.4911 90.2295 39.2992 90.2295 39.255V35.1968H91.3203V39.8197ZM91.3176 42.0535C90.6442 41.8473 90.3403 41.2215 90.3088 40.7795C90.4557 40.8107 90.8353 40.91 91.3176 40.9321V42.0535ZM91.3203 29.0548V32.9201C91.3203 32.9201 90.7749 32.896 90.4648 32.7917C90.2673 32.7272 90.2313 32.5582 90.2313 32.5582V29.2516C90.5648 29.1489 90.9327 29.0804 91.3203 29.0548ZM91.3203 27.4671V28.1789C90.3953 28.2115 90.2033 28.3213 90.179 28.3027C90.298 27.9056 90.7028 27.5065 91.3203 27.4671ZM89.2193 32.456C88.5699 32.1217 88.3364 31.6324 88.3364 31.1381C88.3364 30.6267 88.7023 30.1153 89.2193 29.7423V32.456ZM96.6188 35.316C96.1293 34.3597 95.2818 33.6796 94.3505 33.4271C94.9203 32.5858 95.1367 31.5755 95.1637 30.6716C95.1637 30.5004 95.1475 30.3373 95.1168 30.1798C95.2205 30.1037 95.5883 30.3131 95.8886 30.7505C96.2266 31.2413 96.617 30.8291 96.2762 30.5699C96.0166 30.3685 95.7605 29.4067 95.7335 29.2254C95.7046 29.0447 95.7046 28.3722 95.7605 28.2691C95.8759 28.0376 95.7605 27.3896 95.4468 28.0098C95.1367 28.6304 94.6949 28.4753 94.6949 28.4753C94.4614 27.9846 93.8339 26.9894 92.7223 26.7172C92.8773 26.3306 93.4471 25.8091 94.2766 25.4768C94.7075 25.3042 95.0465 25.1875 95.3954 25.1678C95.5261 24.9338 95.5514 24.7802 95.4468 24.7802C94.8013 24.7802 93.8745 25.0752 93.4796 25.2569C93.1523 25.4094 92.7151 25.5207 92.2309 25.5635C91.8396 25.5971 91.4718 25.581 91.1608 25.5242C90.8615 25.4709 90.3971 25.3772 90.0304 25.2835C89.6644 25.191 89.4482 25.1054 89.2425 25.0162C88.8907 24.8633 88.8347 25.3169 88.9231 25.3993C89.0474 25.4245 89.7596 25.6746 90.0036 25.8529C90.3467 26.1041 90.5775 26.3991 90.7749 26.6663C90.2376 26.8631 89.7261 27.2487 89.5052 27.6222C89.3753 27.4117 89.151 27.2115 88.9105 27.0806C88.735 26.9845 88.5537 26.9396 88.4117 26.9256C88.2713 26.9105 88.1297 26.9105 88.0145 26.9235C87.3141 26.9996 86.9598 27.5402 86.9598 28.0495C86.9598 28.3364 87.1256 28.6153 87.2686 28.7472C87.3743 28.8524 87.6648 28.9415 87.8634 28.8005C87.8997 28.7749 88.0205 28.649 87.8613 28.4543C87.7008 28.26 87.7613 27.8296 88.205 27.8296C88.6502 27.8296 89.0101 28.2438 89.0101 28.7079C88.0518 29.2123 87.2711 30.1209 87.2711 31.1256C87.2711 32.1866 87.9215 33.1275 89.2193 33.5951V38.7635C89.2193 38.827 89.2475 39.2332 88.7372 38.7007C88.6361 38.5909 88.485 38.4576 88.1667 38.0377C87.9345 37.7357 86.9259 35.9463 86.7527 35.9463C86.5182 35.9463 86.3114 35.9719 86.5703 36.3863C86.8305 36.7985 86.9341 37.2394 86.9341 37.6522C86.9341 38.0655 87.02 38.5713 86.13 39.2806C85.7408 39.5907 86.1044 39.9007 86.4428 39.5907C86.7794 39.2806 87.0897 39.3328 87.1953 39.3328C87.4813 39.3328 88.0008 39.3627 88.8034 40.0074C89.008 40.1705 89.1671 40.3582 89.1671 40.6114C89.1671 40.9321 88.9115 41.1934 88.5956 41.1934C88.2794 41.1934 88.0241 40.9321 88.0241 40.6114C88.0241 40.4624 88.0913 40.4438 88.1797 40.3407C88.1797 40.3407 88.0772 40.0039 87.686 40.2873C87.5465 40.3915 87.2813 40.6255 87.3141 41.0177C87.3686 41.6509 88.1994 42.3636 89.4263 41.7375C89.6271 42.0616 90.0014 42.5036 90.3863 42.7456C90.6216 42.8912 90.8398 42.9666 91.0111 43.013C91.1932 43.0627 91.1734 43.08 91.159 43.1227C90.8786 43.9885 90.1835 44.3459 89.9606 44.3957C89.6968 44.4537 88.9707 44.5764 88.7534 43.9618C88.5107 43.2385 89.2077 43.3286 89.144 42.9828C89.0964 42.7211 88.5931 42.7664 88.4234 42.8625C87.9912 43.1066 87.7392 43.5082 87.7392 43.9594C87.7392 44.7304 88.5177 45.3562 89.4775 45.3562C89.9676 45.3562 90.3926 45.1724 90.7028 44.9861C91.0129 44.7984 91.3375 44.6147 91.6566 44.2176C92.0461 44.6712 92.7547 45.0587 92.9837 45.199C93.3975 45.4593 94.7021 45.6028 93.7609 44.9928C92.3211 44.059 92.4816 43.0301 92.4816 43.0301C93.6563 42.8071 95.1917 41.586 95.4829 39.8383C96.9353 38.9902 97.4753 36.9914 96.6188 35.316Z" fill="white"/>
</svg>
