<svg width="166" height="19" viewBox="0 0 166 19" fill="none" xmlns="http://www.w3.org/2000/svg">
<path d="M8.79765e-05 18.024V0.503986H3.33609V18.024H8.79765e-05ZM2.85609 18.024V15.144H10.8001V18.024H2.85609ZM2.85609 10.56V7.67999H10.1761V10.56H2.85609ZM2.85609 3.38399V0.503986H10.6081V3.38399H2.85609ZM21.929 18.024V14.16H21.377V9.86399C21.377 9.11199 21.193 8.55199 20.825 8.18399C20.457 7.81599 19.889 7.63199 19.121 7.63199C18.721 7.63199 18.241 7.63999 17.681 7.65599C17.121 7.67199 16.553 7.69599 15.977 7.72799C15.417 7.74399 14.913 7.76799 14.465 7.79999V4.96799C14.833 4.93599 15.249 4.90399 15.713 4.87199C16.177 4.83999 16.649 4.82399 17.129 4.82399C17.625 4.80799 18.089 4.79999 18.521 4.79999C19.865 4.79999 20.977 4.97599 21.857 5.32799C22.753 5.67999 23.425 6.23199 23.873 6.98399C24.337 7.73599 24.569 8.71999 24.569 9.93599V18.024H21.929ZM17.729 18.36C16.785 18.36 15.953 18.192 15.233 17.856C14.529 17.52 13.977 17.04 13.577 16.416C13.193 15.792 13.001 15.04 13.001 14.16C13.001 13.2 13.233 12.416 13.697 11.808C14.177 11.2 14.841 10.744 15.689 10.44C16.553 10.136 17.561 9.98399 18.713 9.98399H21.737V11.976H18.665C17.897 11.976 17.305 12.168 16.889 12.552C16.489 12.92 16.289 13.4 16.289 13.992C16.289 14.584 16.489 15.064 16.889 15.432C17.305 15.8 17.897 15.984 18.665 15.984C19.129 15.984 19.553 15.904 19.937 15.744C20.337 15.568 20.665 15.28 20.921 14.88C21.193 14.464 21.345 13.904 21.377 13.2L22.193 14.136C22.113 15.048 21.889 15.816 21.521 16.44C21.169 17.064 20.673 17.544 20.033 17.88C19.409 18.2 18.641 18.36 17.729 18.36ZM28.1423 18.024V4.99199H30.7823V10.512H30.7103C30.7103 8.63999 31.1103 7.22399 31.9103 6.26399C32.7103 5.30399 33.8863 4.82399 35.4383 4.82399H35.9183V7.72799H35.0063C33.8863 7.72799 33.0143 8.03199 32.3903 8.63999C31.7823 9.23199 31.4783 10.096 31.4783 11.232V18.024H28.1423ZM38.1502 18.024V4.99199H40.7902V10.584H40.5502C40.5502 9.25599 40.7262 8.15199 41.0782 7.27199C41.4302 6.37599 41.9502 5.70399 42.6382 5.25599C43.3422 4.80799 44.2142 4.58399 45.2542 4.58399H45.3982C46.9502 4.58399 48.1262 5.08799 48.9262 6.09599C49.7262 7.08799 50.1262 8.57599 50.1262 10.56V18.024H46.7902V10.272C46.7902 9.47199 46.5582 8.82399 46.0942 8.32799C45.6462 7.83199 45.0222 7.58399 44.2222 7.58399C43.4062 7.58399 42.7422 7.83999 42.2302 8.35199C41.7342 8.84799 41.4862 9.51999 41.4862 10.368V18.024H38.1502ZM59.5447 18.48C58.4247 18.48 57.4407 18.288 56.5927 17.904C55.7607 17.52 55.0647 17.008 54.5047 16.368C53.9607 15.712 53.5447 14.984 53.2567 14.184C52.9847 13.384 52.8487 12.568 52.8487 11.736V11.28C52.8487 10.416 52.9847 9.58399 53.2567 8.78399C53.5447 7.96799 53.9607 7.24799 54.5047 6.62399C55.0647 5.98399 55.7527 5.47999 56.5687 5.11199C57.3847 4.72799 58.3287 4.53599 59.4007 4.53599C60.8087 4.53599 61.9847 4.84799 62.9287 5.47199C63.8887 6.07999 64.6087 6.88799 65.0887 7.89599C65.5687 8.88799 65.8087 9.95999 65.8087 11.112V12.312H54.2647V10.272H63.7207L62.6887 11.28C62.6887 10.448 62.5687 9.73599 62.3287 9.14399C62.0887 8.55199 61.7207 8.09599 61.2247 7.77599C60.7447 7.45599 60.1367 7.29599 59.4007 7.29599C58.6647 7.29599 58.0407 7.46399 57.5287 7.79999C57.0167 8.13599 56.6247 8.62399 56.3527 9.26399C56.0967 9.88799 55.9687 10.64 55.9687 11.52C55.9687 12.336 56.0967 13.064 56.3527 13.704C56.6087 14.328 57.0007 14.824 57.5287 15.192C58.0567 15.544 58.7287 15.72 59.5447 15.72C60.3607 15.72 61.0247 15.56 61.5367 15.24C62.0487 14.904 62.3767 14.496 62.5207 14.016H65.5927C65.4007 14.912 65.0327 15.696 64.4887 16.368C63.9447 17.04 63.2487 17.56 62.4007 17.928C61.5687 18.296 60.6167 18.48 59.5447 18.48ZM67.0372 18.024L71.2852 11.064L71.2132 11.616L67.2052 4.99199H70.8292L73.4452 9.57599H73.8052L76.2772 4.99199H79.6852L75.8932 11.592L75.9652 11.112L80.4532 18.024H76.8292L73.7332 13.104H73.3732L70.4452 18.024H67.0372ZM96.2148 18.48C94.7108 18.48 93.3828 18.232 92.2308 17.736C91.0948 17.224 90.1348 16.544 89.3508 15.696C88.5828 14.832 87.9988 13.864 87.5988 12.792C87.2148 11.704 87.0228 10.576 87.0228 9.40799V8.87999C87.0228 7.77599 87.2148 6.69599 87.5988 5.63999C87.9828 4.58399 88.5428 3.63199 89.2788 2.78399C90.0308 1.93599 90.9508 1.26399 92.0388 0.767986C93.1428 0.255986 94.4068 -1.43051e-05 95.8308 -1.43051e-05C97.3668 -1.43051e-05 98.7268 0.287986 99.9108 0.863986C101.095 1.42399 102.047 2.21599 102.767 3.23999C103.487 4.24799 103.911 5.42399 104.039 6.76799H100.607C100.495 6.01599 100.215 5.37599 99.7668 4.84799C99.3188 4.30399 98.7508 3.88799 98.0628 3.59999C97.3908 3.31199 96.6468 3.16799 95.8308 3.16799C95.0148 3.16799 94.2708 3.31199 93.5988 3.59999C92.9428 3.88799 92.3828 4.29599 91.9188 4.82399C91.4548 5.35199 91.0948 5.98399 90.8388 6.71999C90.5988 7.45599 90.4788 8.27199 90.4788 9.16799C90.4788 10.144 90.6148 11.016 90.8868 11.784C91.1588 12.552 91.5428 13.208 92.0388 13.752C92.5348 14.28 93.1348 14.688 93.8388 14.976C94.5428 15.248 95.3348 15.384 96.2148 15.384C97.3828 15.384 98.4068 15.144 99.2868 14.664C100.167 14.168 100.807 13.528 101.207 12.744L100.607 15.504V10.992H103.751V14.88C102.999 16.016 101.975 16.904 100.679 17.544C99.3828 18.168 97.8948 18.48 96.2148 18.48ZM95.6628 11.664V9.11999H105.215V11.664H95.6628ZM107.928 18.024V0.503986H111.264V18.024H107.928ZM106.296 2.99999V0.503986H111.264V2.99999H106.296ZM121.336 18.48C120.184 18.48 119.168 18.296 118.288 17.928C117.408 17.56 116.664 17.064 116.056 16.44C115.448 15.8 114.984 15.08 114.664 14.28C114.36 13.48 114.208 12.648 114.208 11.784V11.28C114.208 10.384 114.368 9.53599 114.688 8.73599C115.024 7.91999 115.496 7.19999 116.104 6.57599C116.728 5.93599 117.48 5.43999 118.36 5.08799C119.24 4.71999 120.232 4.53599 121.336 4.53599C122.44 4.53599 123.432 4.71999 124.312 5.08799C125.192 5.43999 125.936 5.93599 126.544 6.57599C127.168 7.19999 127.64 7.91999 127.96 8.73599C128.28 9.53599 128.44 10.384 128.44 11.28V11.784C128.44 12.648 128.28 13.48 127.96 14.28C127.656 15.08 127.2 15.8 126.592 16.44C125.984 17.064 125.24 17.56 124.36 17.928C123.48 18.296 122.472 18.48 121.336 18.48ZM121.336 15.624C122.152 15.624 122.84 15.448 123.4 15.096C123.96 14.728 124.384 14.24 124.672 13.632C124.96 13.008 125.104 12.304 125.104 11.52C125.104 10.72 124.952 10.016 124.648 9.40799C124.36 8.78399 123.928 8.29599 123.352 7.94399C122.792 7.57599 122.12 7.39199 121.336 7.39199C120.552 7.39199 119.872 7.57599 119.296 7.94399C118.736 8.29599 118.304 8.78399 118 9.40799C117.696 10.016 117.544 10.72 117.544 11.52C117.544 12.304 117.688 13.008 117.976 13.632C118.28 14.24 118.712 14.728 119.272 15.096C119.832 15.448 120.52 15.624 121.336 15.624ZM139.017 18.456C137.945 18.456 137.001 18.232 136.185 17.784C135.369 17.32 134.729 16.648 134.265 15.768C133.801 14.888 133.545 13.824 133.497 12.576H134.001V18.024H131.361V0.503986H134.697V9.26399L133.809 10.632C133.873 9.28799 134.137 8.16799 134.601 7.27199C135.081 6.37599 135.721 5.70399 136.521 5.25599C137.321 4.80799 138.225 4.58399 139.233 4.58399C140.129 4.58399 140.945 4.75199 141.681 5.08799C142.417 5.42399 143.049 5.89599 143.577 6.50399C144.105 7.09599 144.505 7.79199 144.777 8.59199C145.065 9.39199 145.209 10.264 145.209 11.208V11.712C145.209 12.656 145.065 13.536 144.777 14.352C144.489 15.168 144.073 15.888 143.529 16.512C142.985 17.12 142.329 17.6 141.561 17.952C140.809 18.288 139.961 18.456 139.017 18.456ZM138.273 15.648C138.993 15.648 139.617 15.472 140.145 15.12C140.689 14.752 141.113 14.256 141.417 13.632C141.721 13.008 141.873 12.288 141.873 11.472C141.873 10.64 141.721 9.91999 141.417 9.31199C141.113 8.70399 140.689 8.23199 140.145 7.89599C139.617 7.55999 138.993 7.39199 138.273 7.39199C137.617 7.39199 137.009 7.53599 136.449 7.82399C135.905 8.11199 135.457 8.53599 135.105 9.09599C134.769 9.65599 134.601 10.328 134.601 11.112V12.072C134.601 12.824 134.777 13.464 135.129 13.992C135.481 14.52 135.937 14.928 136.497 15.216C137.057 15.504 137.649 15.648 138.273 15.648ZM156.038 18.024V14.16H155.486V9.86399C155.486 9.11199 155.302 8.55199 154.934 8.18399C154.566 7.81599 153.998 7.63199 153.23 7.63199C152.83 7.63199 152.35 7.63999 151.79 7.65599C151.23 7.67199 150.662 7.69599 150.086 7.72799C149.526 7.74399 149.022 7.76799 148.574 7.79999V4.96799C148.942 4.93599 149.358 4.90399 149.822 4.87199C150.286 4.83999 150.758 4.82399 151.238 4.82399C151.734 4.80799 152.198 4.79999 152.63 4.79999C153.974 4.79999 155.086 4.97599 155.966 5.32799C156.862 5.67999 157.534 6.23199 157.982 6.98399C158.446 7.73599 158.678 8.71999 158.678 9.93599V18.024H156.038ZM151.838 18.36C150.894 18.36 150.062 18.192 149.342 17.856C148.638 17.52 148.086 17.04 147.686 16.416C147.302 15.792 147.11 15.04 147.11 14.16C147.11 13.2 147.342 12.416 147.806 11.808C148.286 11.2 148.95 10.744 149.798 10.44C150.662 10.136 151.67 9.98399 152.822 9.98399H155.846V11.976H152.774C152.006 11.976 151.414 12.168 150.998 12.552C150.598 12.92 150.398 13.4 150.398 13.992C150.398 14.584 150.598 15.064 150.998 15.432C151.414 15.8 152.006 15.984 152.774 15.984C153.238 15.984 153.662 15.904 154.046 15.744C154.446 15.568 154.774 15.28 155.03 14.88C155.302 14.464 155.454 13.904 155.486 13.2L156.302 14.136C156.222 15.048 155.998 15.816 155.63 16.44C155.278 17.064 154.782 17.544 154.142 17.88C153.518 18.2 152.75 18.36 151.838 18.36ZM162.42 18.024V0.503986H165.756V18.024H162.42ZM160.788 2.99999V0.503986H165.756V2.99999H160.788Z" fill="white"/>
</svg>
