<svg width="155" height="31" viewBox="0 0 155 31" fill="none" xmlns="http://www.w3.org/2000/svg">
<g clip-path="url(#clip0_1004_567)">
<path fill-rule="evenodd" clip-rule="evenodd" d="M21.8753 0.00156582H30.7751V0C37.8211 0 38.9327 2.56324 38.9327 6.34624C38.9327 10.0087 36.9552 12.6925 30.033 12.6925H27.6843V18.5533C27.6839 19.0119 27.7683 19.4667 27.9333 19.8952C28.0554 20.2617 28.4265 20.6281 29.0434 20.8723C29.4161 20.9945 30.033 21.115 30.8988 21.115V21.8478H21.2568V21.115C22.1227 21.115 22.7412 20.9945 23.1107 20.8723C23.7292 20.6281 24.1002 20.3838 24.224 19.8937L24.2244 19.8924C24.3479 19.5264 24.4713 19.1608 24.4713 17.8206V0.732801H21.8753V0.00156582ZM6.54959 0.00156582H15.5731V0.731236H12.6059V15.2573C12.6059 20.7486 10.0115 22.3347 5.06681 22.3347C0.987987 22.3347 0 20.7486 0 18.6739C0 18.1854 0.245807 16.7213 1.72859 16.7213C3.21295 16.7213 3.33664 17.819 3.33664 19.4052C3.33664 20.0158 3.70773 21.3577 5.4379 21.3577C8.27976 21.3577 9.51516 20.1379 9.51516 15.6222V0.732801H6.54959V0.00156582ZM15.6968 19.4052C15.9441 19.042 16.4385 18.9167 16.933 18.9166C17.4274 18.9167 17.7983 19.0389 18.1692 19.4052C18.5403 19.7715 18.6639 20.1379 18.6639 20.6265C18.6639 21.1118 18.5403 21.4814 18.1692 21.8478C17.7981 22.2111 17.4269 22.3332 16.9338 22.3332C16.439 22.3332 16.0679 22.2127 15.6968 21.8478C15.3257 21.4798 15.202 21.1118 15.202 20.6265C15.202 20.1379 15.3257 19.7715 15.6968 19.4052ZM37.2034 18.9166C36.709 18.9167 36.3381 19.042 35.9672 19.4052C35.5977 19.7715 35.4741 20.1379 35.4741 20.6265C35.4741 21.1118 35.5977 21.4798 35.9672 21.8478C36.3383 22.2127 36.7094 22.3332 37.2042 22.3332C37.699 22.3332 38.1922 22.2111 38.4412 21.8478C38.8107 21.4798 38.9343 21.1118 38.9343 20.6265C38.9343 20.1379 38.8107 19.7715 38.4396 19.4052C38.0687 19.0389 37.6993 18.9167 37.2034 18.9166ZM29.5381 11.8392H27.6843V0.854938H29.2923C34.6066 0.854938 35.8419 3.05177 35.8419 6.46838C35.8419 10.0071 33.7422 11.8392 29.5381 11.8392ZM67.2387 18.3075C67.2395 18.8056 67.323 19.3002 67.4861 19.7715C67.6098 20.2601 67.9809 20.6265 68.3504 20.8707C68.8688 21.0404 69.4124 21.1225 69.9585 21.1134V21.8463H61.306V21.1134C61.8515 21.1224 62.3946 21.0403 62.9125 20.8707C63.4073 20.6265 63.7768 20.3822 63.9005 19.8937L63.9015 19.8899C64.0248 19.4026 64.1479 18.9166 64.1479 18.3075V3.17391H63.9005L56.2376 21.8447H55.6191C55.4954 21.6004 47.4615 3.05021 47.4615 3.05021H47.0904V17.6968L47.2141 19.2846C47.2141 19.7715 47.3378 20.1379 47.5852 20.3822C47.8326 20.7486 48.08 20.9929 48.5747 21.115C48.7461 21.115 48.8911 21.1412 49.0467 21.1694C49.2268 21.202 49.421 21.2372 49.6865 21.2372V21.97H43.5048V21.2403C44.0011 21.2403 44.4944 21.2403 44.7418 21.115C45.1129 20.9945 45.484 20.7501 45.7314 20.3838C45.9787 20.019 46.1024 19.6526 46.1024 19.2846V0.734367H43.3827V0.00156582H49.6912C49.6912 0.123699 56.8593 16.6008 56.8593 16.6008C56.8593 16.7229 56.8593 16.7229 56.9829 16.7229L57.1067 16.5992C57.1067 16.5992 63.78 0.245833 63.9037 0.00156582H69.5858V0.732801H67.2387V18.3075ZM79.2278 5.85928C74.5304 5.85928 71.6887 8.90948 71.6887 14.1581C71.6887 21.9684 77.8687 22.4569 79.1041 22.4569C81.7002 22.4569 86.645 20.8707 86.645 14.0376C86.645 8.66676 83.4303 5.85928 79.2278 5.85928ZM75.0253 14.2802C75.0253 19.7731 75.6438 21.4798 79.1041 21.4798C82.1949 21.4798 83.1829 19.5272 83.1829 14.0344C83.1829 10.1293 83.1829 6.83478 79.1041 6.83478C75.2727 6.83478 75.0253 10.0087 75.0253 14.2802ZM98.7593 6.10355C96.038 6.10355 95.0519 7.68972 94.3079 9.39803H94.0607C94.0607 9.39803 93.6912 6.95691 93.5672 6.34624H88.128V7.20118H91.0931V17.9411C91.0931 19.0388 90.9708 19.7731 90.7253 20.2585C90.4764 20.7486 89.7341 21.1134 88.6223 21.1134H88.128V22.0905H97.2746V21.1134H96.7803C95.5428 21.1134 95.0519 20.8707 94.8005 20.3822C94.555 19.8937 94.431 19.1608 94.431 18.0632V12.2055C94.431 10.3735 95.914 8.17825 97.6458 8.17825C98.4602 8.17825 98.8925 8.69625 99.2997 9.18404C99.82 9.80656 100.298 10.3798 101.477 9.76441C102.467 9.15371 102.22 6.10355 98.7593 6.10355ZM133.367 10.253V18.7961C133.491 19.7731 133.737 20.2585 134.726 20.2585V20.2601C135.345 20.2601 135.963 19.6494 135.963 18.6723H136.458C136.333 21.2356 135.096 22.2127 132.996 22.2127C131.141 22.2127 130.029 20.8692 129.904 19.77C128.792 20.8707 127.187 22.3332 124.592 22.3332C122.244 22.3332 120.512 20.5028 120.389 18.5502C120.018 13.4238 126.938 12.8146 129.784 12.5703V10.0055C129.784 9.03164 129.536 8.29882 129.164 7.68815C128.794 7.07748 127.929 6.83478 126.816 6.83478C125.954 6.83478 125.208 7.08062 124.716 7.56602C124.344 8.05612 124.1 8.5431 123.972 9.39803C123.727 10.4988 123.231 10.9842 122.366 10.9842C121.997 10.9842 121.626 10.8621 121.378 10.6178C121.132 10.4957 121.009 10.1277 121.009 9.64226C121.009 8.5431 121.502 7.81185 122.49 7.07748C123.603 6.22411 125.21 5.85614 127.434 5.85614C129.782 5.85614 131.39 6.22411 132.256 7.07748C133.118 7.93398 133.367 8.78733 133.367 10.253ZM130.031 18.5517V18.6739L129.907 18.7961C128.425 20.1395 127.189 20.6281 126.323 20.6281C124.098 20.6281 123.727 18.7961 123.727 17.9426C123.727 15.0146 127.805 13.549 130.031 13.549V18.5517ZM152.65 17.8206C152.65 18.9166 153.021 19.651 153.268 20.1379C153.504 20.4853 154.074 20.7248 154.877 21.0617L155 21.1134V22.0905H147.458V21.1134C147.604 21.0778 147.749 21.0528 147.889 21.0287C148.222 20.9714 148.52 20.9202 148.693 20.747C149.066 20.5043 149.19 20.1363 149.312 19.651C149.391 19.4202 149.371 19.094 149.345 18.6723C149.33 18.4217 149.312 18.137 149.312 17.819V12.6925C149.312 11.4728 149.19 9.64226 148.82 9.03164C148.447 8.30038 147.831 7.93398 146.593 7.93398C145.356 7.93398 144.121 8.5431 143.504 9.64226C142.886 10.6178 142.886 12.3292 142.886 14.036V18.1854C142.886 19.283 143.131 20.0158 143.379 20.3822C143.625 20.7486 144.243 20.8707 144.985 20.9929V21.9684H137.198V20.9929C137.818 20.9929 138.312 20.8707 138.559 20.7486C138.932 20.6265 139.298 20.2585 139.424 19.7731C139.548 19.4052 139.673 18.7961 139.673 17.9411V7.20118H137.198V6.34624H142.143L142.762 9.15371H143.01L143.062 9.07521C143.809 7.96565 145.062 6.10355 148.202 6.10355C149.066 6.10355 149.806 6.22411 150.549 6.59052C151.167 6.95691 151.784 7.44545 152.155 8.17825C152.526 8.78733 152.65 9.76441 152.65 10.7399V17.8206ZM117.918 5.12648C117.423 5.24861 117.176 5.73714 116.929 6.34781C116.805 6.95848 116.557 7.32331 116.186 7.44388C115.815 7.56759 115.446 7.56759 115.075 7.32331C114.21 6.59052 112.726 5.73714 110.006 5.73714C105.556 5.73714 103.703 8.78733 103.703 11.5933C103.703 14.8893 104.939 16.4771 107.779 17.0862C107.905 17.0862 107.905 17.3304 107.779 17.3304C105.433 17.819 103.207 18.5517 103.207 20.7486C103.207 22.0921 103.95 22.8233 105.063 23.3118C106.173 23.7988 107.779 24.0447 109.758 24.0447C110.803 24.0447 111.668 24.0893 112.352 24.1245C112.801 24.1477 113.173 24.1668 113.467 24.1668C114.212 24.2616 114.928 24.5114 115.568 24.8996C116.062 25.266 116.309 25.8766 116.309 26.6063C116.309 27.7055 115.691 28.4383 114.579 29.1712C113.469 29.7818 112.106 30.0261 110.254 30.0261C108.771 30.0261 107.412 29.9023 106.298 29.1712C105.434 28.6826 105.309 27.7071 105.434 26.9743C105.559 26.2415 105.309 25.5102 104.445 25.266C103.904 25.1484 103.351 25.3973 103.085 25.8766C102.836 26.2399 102.713 26.7285 102.713 27.3392C102.713 29.1696 104.197 30.0229 105.309 30.3893C107.039 30.8763 108.154 31 109.635 31C111.738 31 113.343 30.6336 114.579 30.1451C115.817 29.5344 116.559 28.8032 117.052 27.9483C117.545 27.0948 117.794 26.2399 117.794 25.385C117.794 24.2873 117.545 23.3103 117.052 22.7012C115.67 20.9171 113.83 20.8467 110.199 20.7076C109.608 20.685 108.968 20.6605 108.276 20.6265C105.927 20.6265 105.433 20.1379 105.433 19.4052C105.433 18.3075 106.298 17.9411 109.758 17.3304C113.219 16.8419 116.432 15.5 116.432 11.4728C116.432 10.2514 116.186 9.27587 115.813 8.54469C116.557 8.66525 117.176 8.66525 117.792 8.54469C118.536 8.30038 118.904 7.93398 119.153 7.56759C119.401 7.07905 119.523 6.59052 119.277 6.22411C119.401 5.24861 118.782 4.88221 117.918 5.12648ZM106.916 11.717C106.916 15.8648 108.032 16.5992 110.131 16.5992C112.109 16.5992 113.468 15.9885 113.468 11.5948C113.468 8.5431 112.728 6.59052 110.131 6.59052C107.907 6.59052 106.916 8.78892 106.916 11.717Z" fill="#CDCDCD"/>
</g>
<defs>
<clipPath id="clip0_1004_567">
<rect width="155" height="31" fill="white"/>
</clipPath>
</defs>
</svg>
