<svg width="118" height="78" viewBox="0 0 118 78" fill="none" xmlns="http://www.w3.org/2000/svg">
<path d="M116.657 21.9501C111.165 -4.86532 59.1004 -6.56505 25.5426 13.8644V16.1228C59.0648 -1.11521 106.616 -1.00377 110.945 23.6914C112.397 31.8632 107.794 40.3767 99.5702 45.2798V51.688C109.46 48.0612 119.604 36.325 116.657 21.9501ZM55.6564 68.8859C32.5079 71.0209 8.37441 67.6556 4.99128 49.5648C3.33612 40.6442 7.40568 31.1842 12.7961 25.3049V22.164C3.08651 30.6775 -2.17761 41.4569 0.857841 54.1841C4.72979 70.5158 25.4371 79.7618 57.0501 76.6922C69.5633 75.4783 85.9307 71.4503 97.3177 65.1997V56.3206C86.9811 62.4777 69.8932 67.568 55.6564 68.8859Z" fill="white"/>
<path d="M95.4426 18.0499H89.3731V45.0837C89.3731 48.2529 90.9035 51.009 95.4426 51.4503V18.0499ZM23.1564 27.9215H17.0736L17.0676 45.5829C17.0676 48.7625 18.6069 51.5142 23.1564 51.9495V27.9215ZM17.0736 24.626H23.1385V18.8686H17.0736V24.626ZM59.5119 51.6717C54.6014 51.6717 52.5243 48.2529 52.5243 44.8861V21.433H58.5373V27.9155H63.0689V32.78H58.5373V44.5147C58.5373 45.8905 59.1865 46.6512 60.6203 46.6512H63.0689V51.6717H59.5119ZM75.4766 32.4947C73.4173 32.4947 71.8394 33.557 71.1664 34.9849C70.7771 35.8436 70.6315 36.5167 70.5914 37.5731H79.8597C79.7438 34.9849 78.5715 32.4947 75.4766 32.4947ZM70.5914 41.6768C70.5914 44.7524 72.5125 47.0227 75.9194 47.0227C78.5894 47.0227 79.9058 46.2798 81.4495 44.7524L85.1699 48.2989C82.7852 50.6554 80.2831 52.0832 75.8778 52.0832C70.1159 52.0832 64.6007 48.9438 64.6007 39.7795C64.6007 31.9435 69.4251 27.5158 75.7441 27.5158C82.1701 27.5158 85.8623 32.6982 85.8623 39.5061V41.6768H70.5914ZM39.4999 32.78C41.2651 32.78 42.002 33.6506 42.002 35.0666V51.7073H48.0194V35.0294C48.0194 31.6523 46.2216 27.9274 40.9322 27.9274L28.5022 27.92V51.7043H34.5196V32.78H39.4999Z" fill="white"/>
</svg>
