<svg width="14" height="14" viewBox="0 0 14 14" fill="none" xmlns="http://www.w3.org/2000/svg">
<path d="M13.4166 1.75001C12.858 2.14403 12.2395 2.4454 11.5849 2.64251C11.2336 2.23855 10.7667 1.95224 10.2474 1.8223C9.72801 1.69235 9.18129 1.72504 8.68113 1.91594C8.18097 2.10684 7.75151 2.44674 7.45082 2.88967C7.15014 3.33261 6.99274 3.8572 6.99992 4.39251V4.97584C5.97479 5.00242 4.95899 4.77506 4.04301 4.31402C3.12702 3.85297 2.33927 3.17254 1.74992 2.33334C1.74992 2.33334 -0.583415 7.58334 4.66658 9.91667C3.46523 10.7322 2.03409 11.141 0.583252 11.0833C5.83325 14 12.2499 11.0833 12.2499 4.37501C12.2494 4.21252 12.2338 4.05044 12.2033 3.89084C12.7986 3.30371 13.2187 2.56242 13.4166 1.75001Z" fill="white"/>
</svg>
