<svg width="64" height="64" viewBox="0 0 64 64" fill="none" xmlns="http://www.w3.org/2000/svg">
<g clip-path="url(#clip0_1102_11142)">
<path d="M33.2367 27.433C33.1956 30.6719 36.1231 32.4792 38.3284 33.5538C40.5942 34.6563 41.3552 35.3634 41.3462 36.3495C41.3293 37.8584 39.5389 38.5244 37.8635 38.5502C34.9405 38.5955 33.2409 37.7611 31.8898 37.1299L30.8368 42.0571C32.1924 42.6818 34.7025 43.2266 37.3055 43.2505C43.4157 43.2505 47.4131 40.2344 47.4347 35.558C47.4586 29.6231 39.2256 29.2946 39.2818 26.6418C39.3013 25.8375 40.0688 24.9791 41.7507 24.7608C42.5832 24.6506 44.8812 24.5662 47.4867 25.766L48.5094 20.9988C47.1082 20.4886 45.3073 20.0001 43.0652 20.0001C37.3142 20.0001 33.2693 23.0573 33.2367 27.433ZM58.3357 20.4107C57.22 20.4107 56.2798 21.0616 55.8601 22.0603L47.1321 42.9003H53.2377L54.4528 39.5425H61.9137L62.6186 42.9003H68L63.304 20.4107H58.3357ZM59.1898 26.486L60.9519 34.9311H56.1262L59.1898 26.486ZM25.8339 20.411L21.0211 42.9001H26.8393L31.6498 20.4105H25.8339V20.411ZM17.2268 20.4105L11.1709 35.7181L8.72122 22.7026C8.43378 21.2497 7.29866 20.4107 6.03809 20.4107H-3.86134L-4 21.0638C-1.96769 21.5048 0.341375 22.2161 1.74031 22.9771C2.59644 23.4421 2.84056 23.8485 3.12181 24.9532L7.76159 42.9003H13.91L23.3364 20.4107H17.2268" fill="url(#paint0_linear_1102_11142)"/>
</g>
<defs>
<linearGradient id="paint0_linear_1102_11142" x1="29.1013" y1="43.7169" x2="29.7743" y2="19.8384" gradientUnits="userSpaceOnUse">
<stop stop-color="#222357"/>
<stop offset="1" stop-color="#254AA5"/>
</linearGradient>
<clipPath id="clip0_1102_11142">
<rect width="64" height="64" fill="white"/>
</clipPath>
</defs>
</svg>
