<svg width="45" height="45" viewBox="0 0 45 45" fill="none" xmlns="http://www.w3.org/2000/svg">
<path d="M26.2501 7.5H18.7501C11.679 7.5 8.14352 7.5 5.94681 9.69669C4.36517 11.2783 3.92233 13.554 3.79834 17.3438H41.2019C41.078 13.554 40.6351 11.2783 39.0534 9.69669C36.8568 7.5 33.3211 7.5 26.2501 7.5Z" fill="#095171"/>
<path d="M18.75 37.5H26.25C33.321 37.5 36.8567 37.5 39.0532 35.3032C41.25 33.1067 41.25 29.571 41.25 22.5C41.25 21.6714 41.25 20.8912 41.2464 20.1562H3.75354C3.75 20.8912 3.75 21.6714 3.75 22.5C3.75 29.571 3.75 33.1067 5.94669 35.3032C8.14341 37.5 11.6789 37.5 18.75 37.5Z" fill="#095171"/>
<path fill-rule="evenodd" clip-rule="evenodd" d="M9.84375 30C9.84375 29.2234 10.4734 28.5938 11.25 28.5938H18.75C19.5266 28.5938 20.1562 29.2234 20.1562 30C20.1562 30.7766 19.5266 31.4062 18.75 31.4062H11.25C10.4734 31.4062 9.84375 30.7766 9.84375 30Z" fill="black"/>
<path fill-rule="evenodd" clip-rule="evenodd" d="M22.0312 30C22.0312 29.2234 22.6609 28.5938 23.4375 28.5938H26.25C27.0266 28.5938 27.6562 29.2234 27.6562 30C27.6562 30.7766 27.0266 31.4062 26.25 31.4062H23.4375C22.6609 31.4062 22.0312 30.7766 22.0312 30Z" fill="black"/>
</svg>
