<svg width="42" height="42" viewBox="0 0 42 42" fill="none" xmlns="http://www.w3.org/2000/svg">
<path d="M20.763 41.526C32.2301 41.526 41.526 32.2301 41.526 20.763C41.526 9.29591 32.2301 0 20.763 0C9.29591 0 0 9.29591 0 20.763C0 32.2301 9.29591 41.526 20.763 41.526Z" fill="#F3BA2F"/>
<path fill-rule="evenodd" clip-rule="evenodd" d="M26.1478 22.9711L29.2798 26.0941L20.7658 34.5991L12.2608 26.0941L15.3928 22.9711L20.7658 28.3441L26.1478 22.9711ZM20.7658 17.5891L23.9428 20.7661L20.7658 23.9431L17.5978 20.7751V20.7661L18.1558 20.2081L18.4258 19.9381L20.7658 17.5891ZM10.0558 17.6341L13.1878 20.7661L10.0558 23.8891L6.92383 20.7571L10.0558 17.6341ZM31.4758 17.6341L34.6078 20.7661L31.4758 23.8891L28.3438 20.7571L31.4758 17.6341ZM20.7658 6.92407L29.2708 15.4291L26.1388 18.5611L20.7658 13.1791L15.3928 18.5521L12.2608 15.4291L20.7658 6.92407Z" fill="#131415"/>
</svg>
