<svg width="42" height="42" viewBox="0 0 42 42" fill="none" xmlns="http://www.w3.org/2000/svg">
<g clip-path="url(#clip0_1193_2096)">
<path d="M41.3675 26.0799C38.5627 37.33 27.1682 44.1767 15.9168 41.3712C4.67001 38.5664 -2.17665 27.1713 0.629478 15.9218C3.43298 4.67043 14.8274 -2.17688 26.0756 0.627934C37.3263 3.43275 44.1723 14.8292 41.3675 26.0799Z" fill="url(#paint0_linear_1193_2096)"/>
<path d="M30.2538 18.0081C30.6718 15.2138 28.5442 13.7116 25.6351 12.7095L26.5788 8.9243L24.2747 8.35008L23.3559 12.0356C22.7502 11.8846 22.1281 11.7422 21.5099 11.6011L22.4352 7.89136L20.1324 7.31714L19.1881 11.1011C18.6867 10.9869 18.1945 10.874 17.7168 10.7552L17.7194 10.7434L14.5418 9.95001L13.9289 12.411C13.9289 12.411 15.6384 12.8027 15.6023 12.827C16.5355 13.06 16.7042 13.6775 16.6759 14.1671L15.601 18.4793C15.6653 18.4957 15.7487 18.5193 15.8405 18.5561C15.7638 18.537 15.6817 18.516 15.5971 18.4957L14.0903 24.5365C13.9761 24.82 13.6867 25.2452 13.0344 25.0838C13.0574 25.1173 11.3597 24.6658 11.3597 24.6658L10.2158 27.3032L13.2142 28.0507C13.772 28.1905 14.3187 28.3368 14.8568 28.4746L13.9033 32.3032L16.2048 32.8774L17.1491 29.0895C17.7778 29.2602 18.3881 29.4177 18.9853 29.566L18.0442 33.3361L20.3483 33.9104L21.3019 30.089C25.2308 30.8325 28.1853 30.5326 29.4289 26.979C30.4309 24.1178 29.379 22.4673 27.3118 21.3911C28.8172 21.0439 29.9512 20.0536 30.2538 18.0081ZM24.9893 25.3903C24.2773 28.2515 19.4598 26.7047 17.8979 26.3169L19.1631 21.2447C20.725 21.6345 25.7335 22.4063 24.9893 25.3903ZM25.702 17.9668C25.0523 20.5695 21.0426 19.2471 19.7419 18.9229L20.8891 14.3226C22.1898 14.6468 26.3786 15.2519 25.702 17.9668Z" fill="white"/>
</g>
<defs>
<linearGradient id="paint0_linear_1193_2096" x1="0.000488281" y1="-0.000488281" x2="0.000488281" y2="4200.04" gradientUnits="userSpaceOnUse">
<stop stop-color="#F9AA4B"/>
<stop offset="1" stop-color="#F7931A"/>
</linearGradient>
<clipPath id="clip0_1193_2096">
<rect width="42" height="42" fill="white"/>
</clipPath>
</defs>
</svg>
