<svg width="29" height="38" viewBox="0 0 29 38" fill="none" xmlns="http://www.w3.org/2000/svg">
<path d="M14.688 13.7068C13.464 13.6393 10.608 13.4368 10.608 10.9385C10.608 7.9 14.688 7.9 16.184 7.9C18.836 7.9 22.372 8.71026 24.82 9.45299C24.82 9.45299 26.18 9.92564 27.404 10.4658H27.54V10.3308V2.09316L27.404 2.02564C24.48 1.01282 21.08 0 14.756 0C3.876 0 0 6.27949 0 11.6812C0 14.7872 1.36 22.147 13.804 22.9573C14.892 23.0248 17.68 23.1598 17.68 25.7932C17.68 27.9538 15.368 29.2368 11.492 29.2368C7.276 29.2368 3.128 28.1564 0.68 27.1436V35.7188C4.42 36.6641 8.636 37.2043 13.532 37.2043C24.208 37.2043 28.968 31.2624 28.968 25.3205C28.968 18.7034 23.664 14.3145 14.688 13.7068Z" fill="#862165"/>
</svg>
