<svg width="42" height="42" viewBox="0 0 42 42" fill="none" xmlns="http://www.w3.org/2000/svg">
<g clip-path="url(#clip0_1192_3187)">
<path d="M21 0C32.5975 0 42 9.40254 42 21C42 32.5975 32.597 42 21 42C9.40296 42 0 32.6 0 21C0 9.40002 9.40128 0 21 0Z" fill="#53AE94"/>
<path d="M23.5916 18.2019V15.078H30.7354V10.3181H11.2827V15.078H18.4273V18.1994C12.6208 18.4661 8.25488 19.6161 8.25488 20.9937C8.25488 22.3713 12.6229 23.5212 18.4273 23.7896V33.7961H23.5933V23.7888C29.3893 23.5212 33.7464 22.3721 33.7464 20.9958C33.7464 19.6194 29.3893 18.4703 23.5933 18.2028M23.5933 22.9412V22.9387C23.4475 22.9479 22.6987 22.9929 21.0313 22.9929C19.6982 22.9929 18.7603 22.9551 18.4298 22.9379V22.9421C13.2999 22.7148 9.47078 21.8215 9.47078 20.7526C9.47078 19.6837 13.3003 18.7916 18.4298 18.564V22.0521C18.7658 22.0752 19.7268 22.1319 21.0531 22.1319C22.6462 22.1319 23.4471 22.0655 23.5941 22.0521V18.564C28.7139 18.792 32.5342 19.6862 32.5342 20.7513C32.5342 21.8165 28.7122 22.7111 23.5941 22.9391" fill="white"/>
</g>
<defs>
<clipPath id="clip0_1192_3187">
<rect width="42" height="42" fill="white"/>
</clipPath>
</defs>
</svg>
