<svg width="66" height="48" viewBox="0 0 66 48" fill="none" xmlns="http://www.w3.org/2000/svg">
<path d="M33.0013 45.1435C44.819 45.1435 54.3253 35.7177 54.3253 24C54.3253 12.2822 44.819 2.85645 33.0013 2.85645C21.1835 2.85645 11.6772 12.2822 11.6772 24C11.6772 35.7177 21.1835 45.1435 33.0013 45.1435Z" fill="#2775CA"/>
<path d="M38.865 27.347C38.865 24.2643 36.9991 23.2071 33.2674 22.7652C30.6019 22.4121 30.0688 21.7081 30.0688 20.4754C30.0688 19.2427 30.958 18.4499 32.7343 18.4499C34.3336 18.4499 35.2228 18.9784 35.6664 20.2999C35.7559 20.5642 36.0225 20.7397 36.289 20.7397H37.7114C38.0675 20.7397 38.334 20.4754 38.334 20.1223V20.0335C37.9779 18.0946 36.3786 16.5977 34.3358 16.4222V14.3078C34.3358 13.9547 34.0692 13.6904 33.6257 13.6038H32.2929C31.9368 13.6038 31.6703 13.8681 31.5828 14.3078V16.3334C28.9173 16.6865 27.2285 18.4477 27.2285 20.6509C27.2285 23.5581 29.0048 24.7041 32.7365 25.1439C35.225 25.5837 36.0246 26.1123 36.0246 27.5225C36.0246 28.9328 34.7814 29.9012 33.0926 29.9012C30.7832 29.9012 29.9835 28.9328 29.717 27.6113C29.6274 27.2582 29.3609 27.0827 29.0943 27.0827H27.5846C27.2285 27.0827 26.9619 27.347 26.9619 27.7001V27.7889C27.318 29.9921 28.7382 31.5779 31.6703 32.0176V34.132C31.6703 34.4851 31.9368 34.7494 32.3803 34.8361H33.7131C34.0692 34.8361 34.3358 34.5718 34.4232 34.132V32.0176C37.0866 31.5757 38.865 29.7257 38.865 27.347Z" fill="white"/>
<path d="M28.4695 36.5974C21.5392 34.13 17.9845 26.4655 20.5625 19.6826C21.8953 15.9825 24.8274 13.1641 28.4695 11.8426C28.8256 11.6671 29.0026 11.4028 29.0026 10.9609V9.72825C29.0026 9.37515 28.8256 9.11086 28.4695 9.02417C28.3799 9.02417 28.2029 9.02417 28.1134 9.11297C19.6733 11.7559 15.0524 20.6531 17.7179 29.0238C19.3172 33.9566 23.1385 37.7455 28.1134 39.3313C28.4695 39.5068 28.8235 39.3313 28.913 38.9782C29.0026 38.8894 29.0026 38.8027 29.0026 38.6251V37.3924C29.0026 37.126 28.736 36.775 28.4695 36.5974ZM37.8862 9.11086C37.5301 8.93537 37.1761 9.11086 37.0865 9.46396C36.997 9.55276 36.997 9.63945 36.997 9.81705V11.0497C36.997 11.4028 37.2635 11.7538 37.5301 11.9314C44.4604 14.3989 48.0151 22.0634 45.437 28.8462C44.1043 32.5463 41.1722 35.3648 37.5301 36.6862C37.174 36.8617 36.997 37.126 36.997 37.5679V38.8006C36.997 39.1537 37.174 39.418 37.5301 39.5047C37.6196 39.5047 37.7966 39.5047 37.8862 39.4159C46.3262 36.7729 50.9472 27.8757 48.2816 19.505C46.6823 14.4855 42.7737 10.6966 37.8862 9.11086Z" fill="white"/>
</svg>
